<svg width="25" height="24" viewBox="0 0 25 24" fill="none" xmlns="http://www.w3.org/2000/svg">
<path d="M2.5 9.75C2.09 9.75 1.75 9.41 1.75 9V6.5C1.75 3.6 4.11 1.25 7 1.25H9.5C9.91 1.25 10.25 1.59 10.25 2C10.25 2.41 9.91 2.75 9.5 2.75H7C4.93 2.75 3.25 4.43 3.25 6.5V9C3.25 9.41 2.91 9.75 2.5 9.75Z" fill="white"/>
<path d="M22.5 9.75C22.09 9.75 21.75 9.41 21.75 9V6.5C21.75 4.43 20.07 2.75 18 2.75H15.5C15.09 2.75 14.75 2.41 14.75 2C14.75 1.59 15.09 1.25 15.5 1.25H18C20.89 1.25 23.25 3.6 23.25 6.5V9C23.25 9.41 22.91 9.75 22.5 9.75Z" fill="white"/>
<path d="M18 22.75H16.5C16.09 22.75 15.75 22.41 15.75 22C15.75 21.59 16.09 21.25 16.5 21.25H18C20.07 21.25 21.75 19.57 21.75 17.5V16C21.75 15.59 22.09 15.25 22.5 15.25C22.91 15.25 23.25 15.59 23.25 16V17.5C23.25 20.4 20.89 22.75 18 22.75Z" fill="white"/>
<path d="M9.5 22.75H7C4.11 22.75 1.75 20.4 1.75 17.5V15C1.75 14.59 2.09 14.25 2.5 14.25C2.91 14.25 3.25 14.59 3.25 15V17.5C3.25 19.57 4.93 21.25 7 21.25H9.5C9.91 21.25 10.25 21.59 10.25 22C10.25 22.41 9.91 22.75 9.5 22.75Z" fill="white"/>
<path d="M9 11.3801C10.5906 11.3801 11.88 10.0907 11.88 8.50012C11.88 6.90954 10.5906 5.62012 9 5.62012C7.40942 5.62012 6.12 6.90954 6.12 8.50012C6.12 10.0907 7.40942 11.3801 9 11.3801Z" fill="white"/>
<path d="M8 18.3801C9.03829 18.3801 9.88 17.5384 9.88 16.5001C9.88 15.4618 9.03829 14.6201 8 14.6201C6.9617 14.6201 6.12 15.4618 6.12 16.5001C6.12 17.5384 6.9617 18.3801 8 18.3801Z" fill="white"/>
<path d="M17 9.38012C18.0383 9.38012 18.88 8.53841 18.88 7.50012C18.88 6.46182 18.0383 5.62012 17 5.62012C15.9617 5.62012 15.12 6.46182 15.12 7.50012C15.12 8.53841 15.9617 9.38012 17 9.38012Z" fill="white"/>
<path d="M16 18.3801C17.5906 18.3801 18.88 17.0907 18.88 15.5001C18.88 13.9095 17.5906 12.6201 16 12.6201C14.4094 12.6201 13.12 13.9095 13.12 15.5001C13.12 17.0907 14.4094 18.3801 16 18.3801Z" fill="white"/>
</svg>
