<svg width="42" height="42" viewBox="0 0 42 42" fill="none" xmlns="http://www.w3.org/2000/svg">
<path fill-rule="evenodd" clip-rule="evenodd" d="M21 0C17.5356 0.0108636 14.1894 1.26035 11.5658 3.52275C9.555 5.25525 8.09812 7.51275 7.72275 9.77812C3.32325 10.7494 0 14.5819 0 19.2097C0 24.5858 4.4835 28.875 9.92513 28.875H19.6875V14.9809L14.0543 20.6168C13.8078 20.8632 13.4735 21.0017 13.125 21.0017C12.7765 21.0017 12.4422 20.8632 12.1957 20.6168C11.9493 20.3703 11.8108 20.036 11.8108 19.6875C11.8108 19.339 11.9493 19.0047 12.1957 18.7582L20.0707 10.8832C20.1927 10.761 20.3375 10.664 20.497 10.5979C20.6564 10.5317 20.8274 10.4977 21 10.4977C21.1726 10.4977 21.3436 10.5317 21.503 10.5979C21.6625 10.664 21.8073 10.761 21.9293 10.8832L29.8043 18.7582C30.0507 19.0047 30.1892 19.339 30.1892 19.6875C30.1892 20.036 30.0507 20.3703 29.8043 20.6168C29.5578 20.8632 29.2235 21.0017 28.875 21.0017C28.5265 21.0017 28.1922 20.8632 27.9457 20.6168L22.3125 14.9809V28.875H33.306C38.0677 28.875 42 25.1213 42 20.4041C42 16.1096 38.7397 12.6105 34.5608 12.0199C33.9229 5.24738 28.0613 0 21 0ZM19.6875 38.0625V28.875H22.3125V38.0625C22.3125 38.4106 22.1742 38.7444 21.9281 38.9906C21.6819 39.2367 21.3481 39.375 21 39.375C20.6519 39.375 20.3181 39.2367 20.0719 38.9906C19.8258 38.7444 19.6875 38.4106 19.6875 38.0625Z" fill="black"/>
</svg>
