<svg width="20" height="21" viewBox="0 0 20 21" fill="none" xmlns="http://www.w3.org/2000/svg">
<path d="M17.0833 9.37163H14.6749C12.6999 9.37163 11.0916 7.7633 11.0916 5.7883V3.37996C11.0916 2.92163 10.7166 2.54663 10.2583 2.54663H6.72492C4.15825 2.54663 2.08325 4.2133 2.08325 7.1883V14.5716C2.08325 17.5466 4.15825 19.2133 6.72492 19.2133H13.2749C15.8416 19.2133 17.9166 17.5466 17.9166 14.5716V10.205C17.9166 9.74663 17.5416 9.37163 17.0833 9.37163ZM9.60825 12.155C9.48325 12.28 9.32492 12.3383 9.16658 12.3383C9.00825 12.3383 8.84992 12.28 8.72492 12.155L8.12492 11.555V15.0466C8.12492 15.3883 7.84159 15.6716 7.49992 15.6716C7.15825 15.6716 6.87492 15.3883 6.87492 15.0466V11.555L6.27492 12.155C6.03325 12.3966 5.63325 12.3966 5.39159 12.155C5.14992 11.9133 5.14992 11.5133 5.39159 11.2716L7.05825 9.60496C7.11659 9.55496 7.17492 9.5133 7.24158 9.47996C7.25825 9.47163 7.28325 9.4633 7.29992 9.45496C7.34992 9.4383 7.39992 9.42996 7.45825 9.42163C7.48325 9.42163 7.49992 9.42163 7.52492 9.42163C7.59159 9.42163 7.65825 9.4383 7.72492 9.4633C7.73325 9.4633 7.73325 9.4633 7.74159 9.4633C7.80825 9.4883 7.87492 9.5383 7.92492 9.5883C7.93325 9.59663 7.94159 9.59663 7.94159 9.60496L9.60825 11.2716C9.84992 11.5133 9.84992 11.9133 9.60825 12.155Z" fill="#292D32"/>
<path d="M14.5251 8.22146C15.3167 8.2298 16.4167 8.2298 17.3584 8.2298C17.8334 8.2298 18.0834 7.67146 17.7501 7.33813C16.5501 6.1298 14.4001 3.9548 13.1667 2.72146C12.8251 2.3798 12.2334 2.61313 12.2334 3.08813V5.99646C12.2334 7.21313 13.2667 8.22146 14.5251 8.22146Z" fill="#292D32"/>
</svg>
