<svg width="20" height="21" viewBox="0 0 20 21" fill="none" xmlns="http://www.w3.org/2000/svg">
<path d="M18.3501 14.3206L15.7418 8.2206C15.2668 7.10393 14.5584 6.4706 13.7501 6.42893C12.9501 6.38727 12.1751 6.9456 11.5834 8.01227L10.0001 10.8539C9.66678 11.4539 9.19178 11.8123 8.67511 11.8539C8.15011 11.9039 7.62512 11.6289 7.20012 11.0873L7.01678 10.8539C6.42512 10.1123 5.69178 9.75393 4.94178 9.82893C4.19178 9.90393 3.55011 10.4206 3.12511 11.2623L1.68345 14.1373C1.16678 15.1789 1.21678 16.3873 1.82511 17.3706C2.43345 18.3539 3.49178 18.9456 4.65011 18.9456H15.2834C16.4001 18.9456 17.4418 18.3873 18.0584 17.4539C18.6918 16.5206 18.7918 15.3456 18.3501 14.3206Z" fill="#292D32"/>
<path d="M5.80837 7.28739C7.36397 7.28739 8.62503 6.02632 8.62503 4.47072C8.62503 2.91512 7.36397 1.65405 5.80837 1.65405C4.25276 1.65405 2.9917 2.91512 2.9917 4.47072C2.9917 6.02632 4.25276 7.28739 5.80837 7.28739Z" fill="#292D32"/>
</svg>
