<svg width="100" height="100" viewBox="0 0 100 100" fill="none" xmlns="http://www.w3.org/2000/svg">
<path opacity="0.4" d="M49.9999 91.6666C73.0118 91.6666 91.6666 73.0118 91.6666 49.9999C91.6666 26.9881 73.0118 8.33325 49.9999 8.33325C26.9881 8.33325 8.33325 26.9881 8.33325 49.9999C8.33325 73.0118 26.9881 91.6666 49.9999 91.6666Z" fill="#292D32"/>
<path d="M44.0831 64.9171C43.2498 64.9171 42.4581 64.5837 41.8748 64.0004L30.0831 52.2087C28.8748 51.0004 28.8748 49.0004 30.0831 47.7921C31.2915 46.5837 33.2915 46.5837 34.4998 47.7921L44.0831 57.3754L65.4998 35.9587C66.7081 34.7504 68.7081 34.7504 69.9165 35.9587C71.1248 37.1671 71.1248 39.1671 69.9165 40.3754L46.2915 64.0004C45.7081 64.5837 44.9165 64.9171 44.0831 64.9171Z" fill="#292D32"/>
</svg>
