<svg width="20" height="21" viewBox="0 0 20 21" fill="none" xmlns="http://www.w3.org/2000/svg">
<path d="M17.5584 4.66237C16.2167 4.52904 14.875 4.42904 13.525 4.35404V4.3457L13.3417 3.26237C13.2167 2.4957 13.0334 1.3457 11.0834 1.3457H8.90005C6.95838 1.3457 6.77505 2.4457 6.64172 3.25404L6.46672 4.3207C5.69172 4.3707 4.91672 4.4207 4.14172 4.4957L2.44172 4.66237C2.09172 4.6957 1.84172 5.00404 1.87505 5.3457C1.90838 5.68737 2.20838 5.93737 2.55838 5.90404L4.25838 5.73737C8.62505 5.30404 13.0251 5.4707 17.4417 5.91237C17.4667 5.91237 17.4834 5.91237 17.5084 5.91237C17.8251 5.91237 18.1 5.6707 18.1334 5.3457C18.1584 5.00404 17.9084 4.6957 17.5584 4.66237Z" fill="#FE5050"/>
<path d="M16.025 7.08721C15.825 6.87887 15.55 6.76221 15.2666 6.76221H4.73329C4.44995 6.76221 4.16662 6.87887 3.97495 7.08721C3.78329 7.29554 3.67495 7.57887 3.69162 7.87054L4.20829 16.4205C4.29995 17.6872 4.41662 19.2705 7.32495 19.2705H12.675C15.5833 19.2705 15.7 17.6955 15.7916 16.4205L16.3083 7.87887C16.325 7.57887 16.2166 7.29554 16.025 7.08721ZM11.3833 15.0955H8.60829C8.26662 15.0955 7.98329 14.8122 7.98329 14.4705C7.98329 14.1289 8.26662 13.8455 8.60829 13.8455H11.3833C11.725 13.8455 12.0083 14.1289 12.0083 14.4705C12.0083 14.8122 11.725 15.0955 11.3833 15.0955ZM12.0833 11.7622H7.91662C7.57495 11.7622 7.29162 11.4789 7.29162 11.1372C7.29162 10.7955 7.57495 10.5122 7.91662 10.5122H12.0833C12.425 10.5122 12.7083 10.7955 12.7083 11.1372C12.7083 11.4789 12.425 11.7622 12.0833 11.7622Z" fill="#FE5050"/>
</svg>
