<svg width="50" height="50" viewBox="0 0 50 50" fill="none" xmlns="http://www.w3.org/2000/svg">
<path d="M46.4917 6.64258V21.4488L3 38.9439L46.4917 6.64258Z" fill="#00C9FF"/>
<path d="M38.3383 6V31.5417C38.3383 35.111 36.9063 38.5342 34.3573 41.0581C31.8083 43.5821 28.3511 45 24.7463 45C21.1415 45 17.6843 43.5821 15.1353 41.0581C12.5863 38.5342 11.1543 35.111 11.1543 31.5417V20.7791L19.3081 16.3359V31.5417C19.2318 32.2053 19.2979 32.8774 19.5021 33.514C19.7064 34.1506 20.0441 34.7372 20.4933 35.2355C20.9425 35.7338 21.4929 36.1325 22.1085 36.4055C22.7242 36.6785 23.3911 36.8197 24.0657 36.8197C24.7402 36.8197 25.4072 36.6785 26.0228 36.4055C26.6384 36.1325 27.1889 35.7338 27.638 35.2355C28.0872 34.7372 28.425 34.1506 28.6292 33.514C28.8335 32.8774 28.8996 32.2053 28.8232 31.5417V11.1544L38.3383 6Z" fill="#0D67FE"/>
</svg>
