<svg width="16" height="16" viewBox="0 0 16 16" fill="none" xmlns="http://www.w3.org/2000/svg">
<g clip-path="url(#clip0_1135_1921)">
<path d="M7.21875 5.09192C6.63375 5.25192 6.28125 5.70129 6.28125 6.12504C6.28125 6.54879 6.63375 6.99817 7.21875 7.15754V5.09192ZM8.15625 8.21754V10.2825C8.74125 10.1232 9.09375 9.67379 9.09375 9.25004C9.09375 8.82629 8.74125 8.37692 8.15625 8.21754Z" fill="white"/>
<path fill-rule="evenodd" clip-rule="evenodd" d="M15.0312 7.76562C15.0312 11.7784 11.7784 15.0312 7.76562 15.0312C3.75282 15.0312 0.5 11.7784 0.5 7.76562C0.5 3.75282 3.75282 0.5 7.76562 0.5C11.7784 0.5 15.0312 3.75282 15.0312 7.76562ZM7.76562 2.86133C7.91015 2.86133 8.04875 2.91874 8.15094 3.02093C8.25314 3.12312 8.31055 3.26173 8.31055 3.40625V3.63657C9.49484 3.84873 10.4902 4.73877 10.4902 5.94922C10.4902 6.09374 10.4328 6.23234 10.3306 6.33454C10.2284 6.43673 10.0898 6.49414 9.94531 6.49414C9.80079 6.49414 9.66219 6.43673 9.55999 6.33454C9.4578 6.23234 9.40039 6.09374 9.40039 5.94922C9.40039 5.45661 8.99061 4.93421 8.31055 4.74821V7.26938C9.49484 7.48154 10.4902 8.37158 10.4902 9.58203C10.4902 10.7925 9.49484 11.6825 8.31055 11.8947V12.125C8.31055 12.2695 8.25314 12.4081 8.15094 12.5103C8.04875 12.6125 7.91015 12.6699 7.76562 12.6699C7.6211 12.6699 7.4825 12.6125 7.38031 12.5103C7.27811 12.4081 7.2207 12.2695 7.2207 12.125V11.8947C6.03641 11.6825 5.04102 10.7925 5.04102 9.58203C5.04102 9.43751 5.09843 9.29891 5.20062 9.19671C5.30281 9.09452 5.44142 9.03711 5.58594 9.03711C5.73046 9.03711 5.86906 9.09452 5.97126 9.19671C6.07345 9.29891 6.13086 9.43751 6.13086 9.58203C6.13086 10.0746 6.54064 10.597 7.2207 10.7823V8.26187C6.03641 8.04971 5.04102 7.15967 5.04102 5.94922C5.04102 4.73877 6.03641 3.84873 7.2207 3.63657V3.40625C7.2207 3.26173 7.27811 3.12312 7.38031 3.02093C7.4825 2.91874 7.6211 2.86133 7.76562 2.86133Z" fill="white"/>
</g>
<defs>
<clipPath id="clip0_1135_1921">
<rect width="15" height="15" fill="white" transform="translate(0.5 0.5)"/>
</clipPath>
</defs>
</svg>
