<svg width="16" height="16" viewBox="0 0 16 16" fill="none" xmlns="http://www.w3.org/2000/svg">
<rect x="0.5" y="0.5" width="15" height="15" rx="7.5" fill="white"/>
<path d="M3 6.125H4.25V2.375H5.5L7.6375 6.125H10.5V2.375H11.75V6.125H13V7.375H11.75V8.625H13V9.875H11.75V13.625H10.5L8.35625 9.875H5.5V13.625H4.25V9.875H3V8.625H4.25V7.375H3V6.125ZM5.5 6.125H6.20625L5.5 4.89375V6.125ZM5.5 7.375V8.625H7.6375L6.925 7.375H5.5ZM10.5 11.125V9.875H9.78125L10.5 11.125ZM8.35 7.375L9.06875 8.625H10.5V7.375H8.35Z" fill="black"/>
</svg>
