<svg width="16" height="16" viewBox="0 0 16 16" fill="none" xmlns="http://www.w3.org/2000/svg">
<path d="M8 15.5C12.1421 15.5 15.5 12.1421 15.5 8C15.5 3.85786 12.1421 0.5 8 0.5C3.85786 0.5 0.5 3.85786 0.5 8C0.5 12.1421 3.85786 15.5 8 15.5Z" fill="#26A17B"/>
<path fill-rule="evenodd" clip-rule="evenodd" d="M8.90094 8.64829V8.64735C8.84937 8.6511 8.58359 8.66704 7.99062 8.66704C7.51719 8.66704 7.18391 8.65297 7.06672 8.64735V8.64876C5.24422 8.5686 3.88391 8.25125 3.88391 7.87157C3.88391 7.49235 5.24422 7.175 7.06672 7.09344V8.33282C7.18578 8.34125 7.52703 8.36141 7.99859 8.36141C8.56437 8.36141 8.84797 8.33797 8.90094 8.33329V7.09438C10.7197 7.17547 12.0767 7.49282 12.0767 7.87157C12.0767 8.25125 10.7197 8.56766 8.90094 8.64829ZM8.90094 6.96547V5.85641H11.4387V4.16516H4.52891V5.85641H7.06672V6.965C5.00422 7.05969 3.45312 7.46844 3.45312 7.95782C3.45312 8.44719 5.00422 8.85547 7.06672 8.95063V12.5047H8.90094V8.94969C10.9602 8.855 12.5075 8.44672 12.5075 7.95782C12.5075 7.46891 10.9602 7.06063 8.90094 6.96547Z" fill="white"/>
</svg>
