<svg width="3087" height="2460" viewBox="0 0 3087 2460" fill="none" xmlns="http://www.w3.org/2000/svg">
<g clip-path="url(#clip0_803_1895)">
<path d="M5579.17 -207.41H-4230.68V9174.43H5579.17V-207.41Z" fill="#F4F1ED"/>
<path d="M1108.08 531.06H726.58C706.549 531.06 690.31 547.299 690.31 567.33V1057.91C690.31 1077.94 706.549 1094.18 726.58 1094.18H1108.08C1128.11 1094.18 1144.35 1077.94 1144.35 1057.91V567.33C1144.35 547.299 1128.11 531.06 1108.08 531.06Z" fill="#383836" stroke="black" stroke-width="6" stroke-linecap="round" stroke-linejoin="round"/>
<path d="M1002.49 531.06H958.36V1094.7H1002.49V531.06Z" fill="#1C0E0C"/>
<path d="M2346.26 1357.29H2727.76C2747.79 1357.29 2764.03 1341.05 2764.03 1321.02V949.63C2764.03 929.599 2747.79 913.36 2727.76 913.36H2346.26C2326.23 913.36 2309.99 929.599 2309.99 949.63V1321.02C2309.99 1341.05 2326.23 1357.29 2346.26 1357.29Z" fill="#040404" stroke="black" stroke-width="6" stroke-linecap="round" stroke-linejoin="round"/>
<path d="M2451.85 1357.7H2495.98V913.36H2451.85V1357.7Z" fill="#1C0E0C"/>
<path d="M2712.07 1764.18C2755.17 1789.92 2922.93 1302.54 2914.97 1272.55C2915 1272.55 2635.94 1718.71 2712.07 1764.18Z" fill="#F4F1ED" stroke="#070707" stroke-width="6" stroke-linecap="round" stroke-linejoin="round"/>
<path d="M2678.54 1904.48C2678.54 1904.48 2726.25 1585.15 2912.74 1280.97" stroke="#070707" stroke-width="6" stroke-linecap="round" stroke-linejoin="round"/>
<path d="M2858.55 1653.42C2858.55 1653.42 2768.92 1888.12 2717.72 1862.51C2667.46 1837.37 2858.55 1653.42 2858.55 1653.42Z" fill="#F4F1ED" stroke="#070707" stroke-width="6" stroke-linecap="round" stroke-linejoin="round"/>
<path d="M2690.9 1904.48C2690.9 1904.48 2802.12 1729.22 2858.57 1654.23" stroke="#070707" stroke-width="6" stroke-linecap="round" stroke-linejoin="round"/>
<path d="M2728.7 1106.32C2728.7 1106.32 2743.7 1635.9 2678.54 1635.9C2602.16 1635.9 2728.7 1106.32 2728.7 1106.32Z" fill="#F4F1ED" stroke="#070707" stroke-width="6" stroke-linecap="round" stroke-linejoin="round"/>
<path d="M2666.46 1904.48C2666.46 1904.48 2672.92 1434.05 2728.7 1109.93" stroke="#070707" stroke-width="6" stroke-linecap="round" stroke-linejoin="round"/>
<path d="M2508.09 1395.82C2508.09 1395.82 2547.25 1763.88 2612.44 1752.55C2678.54 1741.06 2508.09 1395.82 2508.09 1395.82Z" fill="#F4F1ED" stroke="#070707" stroke-width="6" stroke-linecap="round" stroke-linejoin="round"/>
<path d="M2510.03 1399.62L2657.07 1906.43" stroke="#070707" stroke-width="6" stroke-linecap="round" stroke-linejoin="round"/>
<path d="M2672.92 2075.24C2649.08 2075.24 2626.23 2065.77 2609.37 2048.91C2592.52 2032.06 2583.05 2009.2 2583.05 1985.36V1961.62C2583.05 1956.09 2584.28 1950.62 2586.64 1945.62C2589 1940.62 2592.44 1936.2 2596.71 1932.68L2620.58 1913.02C2627.29 1907.5 2635.72 1904.48 2644.41 1904.48H2701.41C2710.1 1904.48 2718.53 1907.5 2725.24 1913.02L2749.11 1932.68C2753.38 1936.2 2756.82 1940.62 2759.18 1945.62C2761.54 1950.62 2762.77 1956.09 2762.77 1961.62V1985.36C2762.77 2009.19 2753.3 2032.05 2736.46 2048.9C2719.61 2065.76 2696.75 2075.23 2672.92 2075.24Z" fill="#F4F1ED" stroke="#070707" stroke-width="6" stroke-linecap="round" stroke-linejoin="round"/>
<path d="M2688.7 1448.34L2726.34 1413.6" stroke="#070707" stroke-width="6" stroke-linecap="round" stroke-linejoin="round"/>
<path d="M2687.85 1466.12L2725.49 1431.37" stroke="#070707" stroke-width="6" stroke-linecap="round" stroke-linejoin="round"/>
<path d="M2687.85 1299.02L2699.41 1330.43" stroke="#070707" stroke-width="6" stroke-linecap="round" stroke-linejoin="round"/>
<path d="M2764.12 1593.62H2812.29" stroke="#070707" stroke-width="6" stroke-linecap="round" stroke-linejoin="round"/>
<path d="M2767.51 1581.77H2815.68" stroke="#070707" stroke-width="6" stroke-linecap="round" stroke-linejoin="round"/>
<path d="M2841.37 1410.62H2879.87" stroke="#070707" stroke-width="6" stroke-linecap="round" stroke-linejoin="round"/>
<path d="M2551.41 1647.06L2588 1668.38" stroke="#070707" stroke-width="6" stroke-linecap="round" stroke-linejoin="round"/>
<path d="M2554.79 1663.15L2592.24 1685.31" stroke="#070707" stroke-width="6" stroke-linecap="round" stroke-linejoin="round"/>
<path d="M2744.65 1821.11H2777.71" stroke="#070707" stroke-width="6" stroke-linecap="round" stroke-linejoin="round"/>
<path d="M2412.98 420.04H1038.19C1017.69 420.04 1001.07 436.659 1001.07 457.16V1414.98C1001.07 1435.48 1017.69 1452.1 1038.19 1452.1H2412.98C2433.48 1452.1 2450.1 1435.48 2450.1 1414.98V457.16C2450.1 436.659 2433.48 420.04 2412.98 420.04Z" fill="#F4F1ED" stroke="#070707" stroke-width="6" stroke-linecap="round" stroke-linejoin="round"/>
<path d="M1001.07 505.93H2450.1" stroke="#070707" stroke-width="6" stroke-linecap="round" stroke-linejoin="round"/>
<path d="M1216.76 455.41H1209.42C1203.63 455.41 1198.93 460.107 1198.93 465.9V473.24C1198.93 479.033 1203.63 483.73 1209.42 483.73H1216.76C1222.55 483.73 1227.25 479.033 1227.25 473.24V465.9C1227.25 460.107 1222.55 455.41 1216.76 455.41Z" fill="#FFEFF0"/>
<path d="M1168.45 455.41H1161.11C1155.32 455.41 1150.62 460.107 1150.62 465.9V473.24C1150.62 479.033 1155.32 483.73 1161.11 483.73H1168.45C1174.24 483.73 1178.94 479.033 1178.94 473.24V465.9C1178.94 460.107 1174.24 455.41 1168.45 455.41Z" fill="#FFEFF0"/>
<path d="M1120.13 455.41H1112.79C1107 455.41 1102.3 460.107 1102.3 465.9V473.24C1102.3 479.033 1107 483.73 1112.79 483.73H1120.13C1125.92 483.73 1130.62 479.033 1130.62 473.24V465.9C1130.62 460.107 1125.92 455.41 1120.13 455.41Z" fill="#FFEFF0"/>
<path d="M1210.92 450.22H1203.58C1197.79 450.22 1193.09 454.917 1193.09 460.71V468.05C1193.09 473.843 1197.79 478.54 1203.58 478.54H1210.92C1216.71 478.54 1221.41 473.843 1221.41 468.05V460.71C1221.41 454.917 1216.71 450.22 1210.92 450.22Z" fill="#040404" stroke="black" stroke-width="6" stroke-linecap="round" stroke-linejoin="round"/>
<path d="M1162.6 450.22H1155.26C1149.47 450.22 1144.77 454.917 1144.77 460.71V468.05C1144.77 473.843 1149.47 478.54 1155.26 478.54H1162.6C1168.39 478.54 1173.09 473.843 1173.09 468.05V460.71C1173.09 454.917 1168.39 450.22 1162.6 450.22Z" fill="#383836" stroke="black" stroke-width="6" stroke-linecap="round" stroke-linejoin="round"/>
<path d="M1114.29 450.22H1106.95C1101.16 450.22 1096.46 454.917 1096.46 460.71V468.05C1096.46 473.843 1101.16 478.54 1106.95 478.54H1114.29C1120.08 478.54 1124.78 473.843 1124.78 468.05V460.71C1124.78 454.917 1120.08 450.22 1114.29 450.22Z" fill="#FFF8F6" stroke="black" stroke-width="6" stroke-linecap="round" stroke-linejoin="round"/>
<path d="M2191.23 1149.26H1277.08C1267.35 1149.26 1259.47 1157.14 1259.47 1166.87V1320.71C1259.47 1330.44 1267.35 1338.32 1277.08 1338.32H2191.23C2200.96 1338.32 2208.84 1330.44 2208.84 1320.71V1166.87C2208.84 1157.14 2200.96 1149.26 2191.23 1149.26Z" stroke="#070707" stroke-width="6" stroke-linecap="round" stroke-linejoin="round"/>
<path d="M2044.9 1201.8H1935.32V1286.44H2044.9V1201.8Z" fill="#383836" stroke="black" stroke-width="6" stroke-linecap="round" stroke-linejoin="round"/>
<path d="M2091.3 1286.44H2044.9V1222.95H2068.1L2091.3 1256.57V1286.44Z" fill="#F4F1ED" stroke="#070707" stroke-width="6" stroke-linecap="round" stroke-linejoin="round"/>
<path d="M2053.3 1234.71H2065.14L2076.99 1251.86H2053.3V1234.71Z" fill="#F4F1ED" stroke="#070707" stroke-width="6" stroke-linecap="round" stroke-linejoin="round"/>
<path d="M1967.64 1299.17C1974.21 1299.17 1979.54 1293.84 1979.54 1287.27C1979.54 1280.7 1974.21 1275.37 1967.64 1275.37C1961.07 1275.37 1955.74 1280.7 1955.74 1287.27C1955.74 1293.84 1961.07 1299.17 1967.64 1299.17Z" fill="#F4F1ED" stroke="#070707" stroke-width="6" stroke-linecap="round" stroke-linejoin="round"/>
<path d="M2067.94 1299.17C2074.51 1299.17 2079.84 1293.84 2079.84 1287.27C2079.84 1280.7 2074.51 1275.37 2067.94 1275.37C2061.37 1275.37 2056.04 1280.7 2056.04 1287.27C2056.04 1293.84 2061.37 1299.17 2067.94 1299.17Z" fill="#F4F1ED" stroke="#070707" stroke-width="6" stroke-linecap="round" stroke-linejoin="round"/>
<path d="M2022.9 1222.95H1987.95" stroke="#070707" stroke-width="6" stroke-linecap="round" stroke-linejoin="round"/>
<path d="M2010.29 1237.41H1975.35" stroke="#070707" stroke-width="6" stroke-linecap="round" stroke-linejoin="round"/>
<path d="M2022.9 1251.86H1987.95" stroke="#070707" stroke-width="6" stroke-linecap="round" stroke-linejoin="round"/>
<path d="M1833.9 1299.01C1861.08 1299.01 1883.12 1276.97 1883.12 1249.79C1883.12 1222.61 1861.08 1200.57 1833.9 1200.57C1806.72 1200.57 1784.68 1222.61 1784.68 1249.79C1784.68 1276.97 1806.72 1299.01 1833.9 1299.01Z" fill="#F4F1ED" stroke="#070707" stroke-width="6" stroke-linecap="round" stroke-linejoin="round"/>
<path d="M1834.11 1200.72V1299.16" stroke="#070707" stroke-width="6" stroke-linecap="round" stroke-linejoin="round"/>
<path d="M1842.81 1201C1842.81 1201 1875.62 1239.07 1842.81 1298.84Z" fill="#F4F1ED"/>
<path d="M1842.81 1201C1842.81 1201 1875.62 1239.07 1842.81 1298.84" stroke="#070707" stroke-width="6" stroke-linecap="round" stroke-linejoin="round"/>
<path d="M1825.4 1201C1825.4 1201 1792.59 1239.07 1825.4 1298.84" stroke="#070707" stroke-width="6" stroke-linecap="round" stroke-linejoin="round"/>
<path d="M1784.89 1249.94H1883.32" stroke="#070707" stroke-width="6" stroke-linecap="round" stroke-linejoin="round"/>
<path d="M1803.45 1288.45C1803.45 1288.45 1833.23 1270.55 1864.1 1288.45" stroke="#070707" stroke-width="6" stroke-linecap="round" stroke-linejoin="round"/>
<path d="M1803.45 1211.66C1803.45 1211.66 1833.23 1229.56 1864.1 1211.66" stroke="#070707" stroke-width="6" stroke-linecap="round" stroke-linejoin="round"/>
<path d="M1691.34 1273.98C1711.27 1273.98 1727.42 1258.62 1727.42 1239.68C1727.42 1220.74 1711.27 1205.38 1691.34 1205.38C1671.41 1205.38 1655.26 1220.74 1655.26 1239.68C1655.26 1258.62 1671.41 1273.98 1691.34 1273.98Z" fill="#FFEFF0"/>
<path d="M1684.53 1271.25C1705.04 1271.25 1721.67 1255.45 1721.67 1235.95C1721.67 1216.45 1705.04 1200.65 1684.53 1200.65C1664.02 1200.65 1647.39 1216.45 1647.39 1235.95C1647.39 1255.45 1664.02 1271.25 1684.53 1271.25Z" fill="#383836" stroke="black" stroke-width="6" stroke-linecap="round" stroke-linejoin="round"/>
<path d="M1703.1 1218.3C1705.53 1220.55 1707.46 1223.29 1708.79 1226.32C1710.11 1229.36 1710.79 1232.64 1710.79 1235.95C1710.79 1239.26 1710.11 1242.54 1708.79 1245.58C1707.46 1248.61 1705.53 1251.35 1703.1 1253.6" stroke="#070707" stroke-width="6" stroke-linecap="round" stroke-linejoin="round"/>
<path d="M1710.75 1273.28L1733.75 1297.47C1734.74 1298.49 1736.07 1299.09 1737.49 1299.16C1738.9 1299.23 1740.29 1298.75 1741.37 1297.84C1741.89 1297.4 1742.31 1296.86 1742.62 1296.25C1742.92 1295.64 1743.1 1294.98 1743.14 1294.3C1743.17 1293.62 1743.07 1292.94 1742.84 1292.3C1742.6 1291.66 1742.24 1291.07 1741.77 1290.58L1718.77 1266.39C1717.78 1265.37 1716.45 1264.77 1715.03 1264.7C1713.62 1264.63 1712.23 1265.11 1711.15 1266.02C1710.63 1266.46 1710.21 1267 1709.9 1267.61C1709.6 1268.22 1709.42 1268.88 1709.39 1269.56C1709.35 1270.24 1709.45 1270.92 1709.68 1271.56C1709.92 1272.2 1710.28 1272.79 1710.75 1273.28Z" fill="#383836" stroke="black" stroke-width="6" stroke-linecap="round" stroke-linejoin="round"/>
<path d="M1590.34 1215.34H1520.64C1516.97 1215.34 1514 1218.31 1514 1221.98V1291.68C1514 1295.35 1516.97 1298.32 1520.64 1298.32H1590.34C1594.01 1298.32 1596.98 1295.35 1596.98 1291.68V1221.98C1596.98 1218.31 1594.01 1215.34 1590.34 1215.34Z" fill="#040404" stroke="black" stroke-width="6" stroke-linecap="round" stroke-linejoin="round"/>
<path d="M1571.05 1215.34H1507.57C1503.9 1215.34 1500.93 1218.31 1500.93 1221.98V1291.68C1500.93 1295.35 1503.9 1298.32 1507.57 1298.32H1571.05C1574.72 1298.32 1577.69 1295.35 1577.69 1291.68V1221.98C1577.69 1218.31 1574.72 1215.34 1571.05 1215.34Z" fill="#040404" stroke="black" stroke-width="6" stroke-linecap="round" stroke-linejoin="round"/>
<path d="M1540.56 1302.82V1210.12" stroke="#070707" stroke-width="6" stroke-linecap="round" stroke-linejoin="round"/>
<path d="M1496.85 1256.63H1600.65" stroke="#070707" stroke-width="6" stroke-linecap="round" stroke-linejoin="round"/>
<path d="M1553 1188.71H1559.1C1562.4 1188.71 1565.56 1190.02 1567.89 1192.35C1570.22 1194.68 1571.53 1197.84 1571.53 1201.14V1202.9C1571.53 1206.2 1570.22 1209.36 1567.89 1211.69C1565.56 1214.02 1562.4 1215.33 1559.1 1215.33H1540.57V1201.13C1540.57 1197.83 1541.88 1194.67 1544.21 1192.34C1546.54 1190.01 1549.7 1188.7 1553 1188.7V1188.71Z" stroke="#070707" stroke-width="6" stroke-linecap="round" stroke-linejoin="round"/>
<path d="M1540.42 1215.34H1523.49C1520.89 1215.34 1518.39 1214.31 1516.55 1212.46C1514.7 1210.62 1513.67 1208.12 1513.67 1205.52V1204.13C1513.67 1201.53 1514.7 1199.03 1516.55 1197.19C1518.39 1195.34 1520.89 1194.31 1523.49 1194.31H1530.6C1533.2 1194.31 1535.7 1195.34 1537.54 1197.19C1539.39 1199.03 1540.42 1201.53 1540.42 1204.13V1215.34Z" stroke="#070707" stroke-width="6" stroke-linecap="round" stroke-linejoin="round"/>
<path d="M1556.04 1232.33L1540.41 1215.34L1530.86 1224.9" stroke="#070707" stroke-width="6" stroke-linecap="round" stroke-linejoin="round"/>
<path d="M1396.22 1187.93H1397.76C1400.64 1187.93 1403.41 1189.08 1405.45 1191.11C1407.48 1193.15 1408.63 1195.92 1408.63 1198.8V1213.64H1385.35V1198.8C1385.35 1195.92 1386.5 1193.15 1388.53 1191.11C1390.57 1189.08 1393.34 1187.93 1396.22 1187.93Z" stroke="#070707" stroke-width="6" stroke-linecap="round" stroke-linejoin="round"/>
<path d="M1388 1187.93H1389.54C1392.42 1187.93 1395.19 1189.08 1397.23 1191.11C1399.26 1193.15 1400.41 1195.92 1400.41 1198.8V1213.64H1377.13V1198.8C1377.13 1195.92 1378.28 1193.15 1380.31 1191.11C1382.35 1189.08 1385.12 1187.93 1388 1187.93Z" stroke="#070707" stroke-width="6" stroke-linecap="round" stroke-linejoin="round"/>
<path d="M1432.69 1299.16H1407.55L1418.03 1213.6H1422.21L1432.69 1299.16Z" fill="#1C0E0C"/>
<path d="M1418.03 1213.6L1407.55 1299.16H1347.85L1358.32 1213.6H1418.03Z" fill="#383836" stroke="black" stroke-width="6" stroke-linecap="round" stroke-linejoin="round"/>
<path d="M1901.6 800.89H1699.7C1689.97 800.89 1682.09 808.774 1682.09 818.5V1020.4C1682.09 1030.13 1689.97 1038.01 1699.7 1038.01H1901.6C1911.33 1038.01 1919.21 1030.13 1919.21 1020.4V818.5C1919.21 808.774 1911.33 800.89 1901.6 800.89Z" fill="#1C0E0C"/>
<path d="M1891.74 790.91H1689.84C1680.11 790.91 1672.23 798.794 1672.23 808.52V1010.42C1672.23 1020.15 1680.11 1028.03 1689.84 1028.03H1891.74C1901.47 1028.03 1909.35 1020.15 1909.35 1010.42V808.52C1909.35 798.794 1901.47 790.91 1891.74 790.91Z" fill="#F4F1ED" stroke="#070707" stroke-width="6" stroke-linecap="round" stroke-linejoin="round"/>
<path d="M1832.78 1002.2H1765.3C1758.92 1002.2 1752.62 1000.77 1746.88 998.001C1741.13 995.232 1736.09 991.202 1732.12 986.21C1728.15 981.219 1725.35 975.395 1723.95 969.173C1722.54 962.952 1722.56 956.494 1724 950.28L1737.6 902.16C1738.07 900.126 1739.22 898.311 1740.85 897.011C1742.49 895.711 1744.51 895.002 1746.6 895H1851.42C1853.51 895.001 1855.54 895.709 1857.17 897.009C1858.8 898.309 1859.95 900.125 1860.42 902.16L1874.03 950.28C1875.46 956.489 1875.48 962.942 1874.08 969.158C1872.67 975.374 1869.88 981.193 1865.92 986.183C1861.96 991.173 1856.92 995.204 1851.18 997.977C1845.44 1000.75 1839.15 1002.19 1832.78 1002.2Z" fill="#383836"/>
<path d="M1824.63 994.87H1757.15C1750.77 994.87 1744.48 993.431 1738.73 990.66C1732.99 987.889 1727.95 983.857 1723.98 978.866C1720.01 973.874 1717.22 968.051 1715.81 961.831C1714.41 955.61 1714.42 949.153 1715.86 942.94L1729.47 894.83C1729.94 892.793 1731.08 890.975 1732.72 889.673C1734.35 888.371 1736.38 887.661 1738.47 887.66H1843.3C1845.39 887.663 1847.42 888.373 1849.05 889.675C1850.68 890.977 1851.83 892.794 1852.3 894.83L1865.9 942.94C1867.34 949.152 1867.36 955.608 1865.95 961.828C1864.55 968.047 1861.76 973.87 1857.79 978.861C1853.83 983.853 1848.78 987.885 1843.04 990.657C1837.3 993.429 1831.01 994.869 1824.63 994.87Z" stroke="#070707" stroke-width="6" stroke-linecap="round" stroke-linejoin="round"/>
<path d="M1831.74 879.14C1831.74 881.993 1831.53 884.841 1831.09 887.66H1750.69C1750.25 884.841 1750.04 881.993 1750.04 879.14C1750.04 852.79 1768.32 831.44 1790.88 831.44C1813.44 831.44 1831.74 852.79 1831.74 879.14Z" stroke="#070707" stroke-width="6" stroke-linecap="round" stroke-linejoin="round"/>
<path d="M1850.05 890.58C1848.67 921.98 1822.15 947.03 1790.88 947.03C1760.45 947.03 1733.11 922.03 1731.73 890.59C1732.59 889.666 1733.64 888.928 1734.8 888.424C1735.95 887.92 1737.21 887.66 1738.47 887.66H1843.29C1844.56 887.661 1845.81 887.92 1846.97 888.422C1848.13 888.925 1849.18 889.659 1850.05 890.58Z" stroke="#070707" stroke-width="6" stroke-linecap="round" stroke-linejoin="round"/>
<path d="M1794.96 937.82H1786.81V957.01H1794.96V937.82Z" stroke="#070707" stroke-width="6" stroke-linecap="round" stroke-linejoin="round"/>
<path d="M1862.36 820.03C1876.84 820.03 1888.57 808.295 1888.57 793.82C1888.57 779.345 1876.84 767.61 1862.36 767.61C1847.88 767.61 1836.15 779.345 1836.15 793.82C1836.15 808.295 1847.88 820.03 1862.36 820.03Z" fill="#040404" stroke="black" stroke-width="6" stroke-linecap="round" stroke-linejoin="round"/>
<path d="M1852.71 793.06L1861.31 805.21L1872.02 782.43" stroke="#070707" stroke-width="6" stroke-linecap="round" stroke-linejoin="round"/>
<path d="M2196.78 642.76H1686.73C1678.72 642.76 1672.23 649.252 1672.23 657.26V732.78C1672.23 740.788 1678.72 747.28 1686.73 747.28H2196.78C2204.79 747.28 2211.28 740.788 2211.28 732.78V657.26C2211.28 649.252 2204.79 642.76 2196.78 642.76Z" stroke="#070707" stroke-width="6" stroke-linecap="round" stroke-linejoin="round"/>
<path d="M1830.65 729.58H1756.48C1756.48 729.58 1736.19 697 1729.26 697C1725.26 697 1723.62 729.59 1723.62 729.59H1719C1719 729.59 1708.2 663.03 1720.17 659.22C1727.97 656.74 1749.09 663.34 1754.89 689.47C1759.79 711.47 1787.96 715.42 1791.09 700.9C1791.09 700.89 1829.33 712.16 1830.65 729.58Z" fill="#F4F1ED" stroke="#070707" stroke-width="6" stroke-linecap="round" stroke-linejoin="round"/>
<path d="M2020.92 713.6C2020.79 715.15 2018 722.53 2018 722.53L1875.42 717.7V709.7C1875.58 699.367 1877.94 689.187 1882.35 679.84C1886.06 672.11 1891.19 674.04 1891.19 674.04C1891.19 674.04 1905.13 687.67 1920.77 687.67C1922.13 687.657 1923.47 687.288 1924.65 686.601C1925.83 685.914 1926.81 684.931 1927.49 683.75C1928.41 682.309 1929.13 680.747 1929.62 679.11C1930.28 676.977 1930.74 674.788 1930.99 672.57C1931.11 671.634 1931.45 670.741 1931.99 669.965C1932.53 669.19 1933.24 668.555 1934.08 668.115C1934.91 667.674 1935.84 667.441 1936.79 667.435C1937.73 667.429 1938.66 667.65 1939.5 668.08C1945.64 671.24 1953.09 678.3 1973.05 689.08C1974.05 689.62 1975.05 690.18 1976.15 690.74C2000.43 703.53 2020.66 698.78 2020.92 713.6Z" fill="#F4F1ED" stroke="#070707" stroke-width="6" stroke-linecap="round" stroke-linejoin="round"/>
<path d="M2004.89 729.58C2009.02 729.58 2014.05 727.71 2016.76 724.69C2018.44 722.72 2019.65 720.392 2020.29 717.884C2020.93 715.377 2020.99 712.755 2020.47 710.22H2020.36C2019.78 713.236 2018.19 715.963 2015.85 717.948C2013.51 719.934 2010.56 721.056 2007.49 721.13L1883.88 717.5C1881.98 717.441 1880.15 716.794 1878.63 715.65C1877.12 714.505 1876 712.919 1875.42 711.11V719.41C1875.42 725.03 1879.5 729.58 1884.52 729.58H2004.89Z" fill="#383836" stroke="black" stroke-width="6" stroke-linecap="round" stroke-linejoin="round"/>
<path d="M1978.48 692C1947.6 681.44 1932.15 676.66 1929.62 679.2C1930.28 677.067 1930.74 674.878 1930.99 672.66C1931.11 671.724 1931.45 670.831 1931.99 670.055C1932.53 669.28 1933.24 668.645 1934.08 668.205C1934.91 667.764 1935.84 667.531 1936.79 667.525C1937.73 667.519 1938.66 667.74 1939.5 668.17C1945.64 671.28 1955.91 680.66 1978.48 692Z" fill="#383836" stroke="black" stroke-width="6" stroke-linecap="round" stroke-linejoin="round"/>
<path d="M1944.78 678.06L1950.38 669.54C1950.71 669.042 1951.13 668.615 1951.63 668.286C1952.13 667.958 1952.68 667.733 1953.27 667.626C1953.86 667.52 1954.46 667.533 1955.04 667.666C1955.62 667.799 1956.17 668.049 1956.65 668.4C1957.51 669.031 1958.11 669.952 1958.34 670.993C1958.58 672.034 1958.42 673.124 1957.91 674.06L1957.16 675.43" stroke="#070707" stroke-width="6" stroke-linecap="round" stroke-linejoin="round"/>
<path d="M1959.18 682.47L1963.28 676.34C1963.58 675.912 1963.96 675.549 1964.4 675.272C1964.84 674.995 1965.33 674.81 1965.84 674.729C1966.36 674.647 1966.88 674.671 1967.39 674.799C1967.89 674.926 1968.37 675.154 1968.78 675.47C1969.53 676.038 1970.04 676.86 1970.23 677.781C1970.41 678.702 1970.25 679.658 1969.78 680.47L1968.3 683.15" stroke="#070707" stroke-width="6" stroke-linecap="round" stroke-linejoin="round"/>
<path d="M1979.85 689C1981.49 686.77 1981.09 684.21 1979.45 683C1979.01 682.671 1978.5 682.436 1977.97 682.308C1977.43 682.18 1976.88 682.162 1976.34 682.255C1975.79 682.349 1975.28 682.552 1974.81 682.852C1974.35 683.152 1973.96 683.542 1973.65 684L1971.14 688.11" stroke="#070707" stroke-width="6" stroke-linecap="round" stroke-linejoin="round"/>
<path d="M2164.04 665.18C2176.42 665.18 2186.46 655.142 2186.46 642.76C2186.46 630.378 2176.42 620.34 2164.04 620.34C2151.66 620.34 2141.62 630.378 2141.62 642.76C2141.62 655.142 2151.66 665.18 2164.04 665.18Z" fill="#FFF8F6" stroke="black" stroke-width="6" stroke-linecap="round" stroke-linejoin="round"/>
<path d="M2156.67 650.41L2171.41 635.11" stroke="#070707" stroke-width="6" stroke-linecap="round" stroke-linejoin="round"/>
<path d="M2171.41 650.41L2156.67 635.11" stroke="#070707" stroke-width="6" stroke-linecap="round" stroke-linejoin="round"/>
<path d="M2063.82 693.83C2063.82 693.83 2047.82 729.58 2071.06 729.58H2178.94C2178.94 729.58 2183.28 712.07 2155.26 707.58C2151.36 706.95 2140.26 704.82 2140.26 704.82C2140.26 704.82 2143.72 718.82 2119.06 717.71C2094.4 716.6 2083.25 695.59 2063.82 693.83Z" fill="#F4F1ED" stroke="#070707" stroke-width="6" stroke-linecap="round" stroke-linejoin="round"/>
<path d="M1636.9 658.73H1292.85C1283.12 658.73 1275.24 666.614 1275.24 676.34V1020.39C1275.24 1030.12 1283.12 1038 1292.85 1038H1636.9C1646.63 1038 1654.51 1030.12 1654.51 1020.39V676.34C1654.51 666.614 1646.63 658.73 1636.9 658.73Z" fill="#1C0E0C"/>
<path d="M1621.13 642.76H1277.08C1267.35 642.76 1259.47 650.644 1259.47 660.37V1004.42C1259.47 1014.15 1267.35 1022.03 1277.08 1022.03H1621.13C1630.86 1022.03 1638.74 1014.15 1638.74 1004.42V660.37C1638.74 650.644 1630.86 642.76 1621.13 642.76Z" fill="#383836" stroke="black" stroke-width="6" stroke-linecap="round" stroke-linejoin="round"/>
<path d="M1590.19 796L1539.84 838.65V952.92H1372.2V838.69L1321.86 796L1360.49 748C1372.2 737.81 1390.03 736.21 1402.98 736.21H1513.8C1539.8 736.21 1546.39 741.1 1553.14 746.42L1590.19 796Z" fill="#1C0E0C"/>
<path d="M1586 788.25L1534.74 831.66V948H1364V831.66L1312.75 788.25L1352.07 739.25C1364 728.87 1382.16 727.25 1395.34 727.25H1508.17C1534.64 727.25 1541.34 732.25 1548.17 737.64L1586 788.25Z" fill="#F4F1ED" stroke="#070707" stroke-width="6" stroke-linecap="round" stroke-linejoin="round"/>
<path d="M1364.02 831.66V790.52" stroke="#070707" stroke-width="6" stroke-linecap="round" stroke-linejoin="round"/>
<path d="M1534.66 832.05V790.91" stroke="#070707" stroke-width="6" stroke-linecap="round" stroke-linejoin="round"/>
<path d="M1449.36 765.17V947.97" stroke="#070707" stroke-width="6" stroke-linecap="round" stroke-linejoin="round"/>
<path d="M1502.37 727.29H1463.94C1463.58 727.287 1463.23 727.398 1462.93 727.606C1462.64 727.814 1462.42 728.109 1462.3 728.45L1449.36 765.17L1435.74 728.75C1435.58 728.321 1435.29 727.951 1434.91 727.69C1434.54 727.429 1434.09 727.289 1433.63 727.29H1395.75L1414.16 711.62C1418.28 708.11 1423.51 706.181 1428.92 706.18H1469.2C1474.61 706.181 1479.85 708.109 1483.97 711.62L1502.37 727.29Z" fill="#F4F1ED" stroke="#070707" stroke-width="6" stroke-linecap="round" stroke-linejoin="round"/>
<path d="M1422.08 711.73L1435.19 727.29L1420.19 748.7L1395.73 727.29L1414.89 711.12C1415.4 710.686 1415.99 710.358 1416.63 710.154C1417.27 709.95 1417.94 709.874 1418.61 709.931C1419.28 709.987 1419.93 710.176 1420.53 710.484C1421.12 710.793 1421.65 711.216 1422.08 711.73Z" fill="#F4F1ED" stroke="#070707" stroke-width="6" stroke-linecap="round" stroke-linejoin="round"/>
<path d="M1476.05 711.73L1462.93 727.29L1477.93 748.7L1502.39 727.29L1483.23 711.12C1482.72 710.688 1482.13 710.361 1481.49 710.158C1480.85 709.955 1480.18 709.879 1479.51 709.936C1478.85 709.992 1478.2 710.18 1477.6 710.488C1477.01 710.796 1476.48 711.218 1476.05 711.73Z" fill="#F4F1ED" stroke="#070707" stroke-width="6" stroke-linecap="round" stroke-linejoin="round"/>
<path d="M1475 793.82H1509V826.07C1509 827.749 1508.33 829.359 1507.15 830.546C1505.96 831.733 1504.35 832.4 1502.67 832.4H1481.33C1479.65 832.4 1478.04 831.733 1476.85 830.546C1475.67 829.359 1475 827.749 1475 826.07V793.82Z" fill="#F4F1ED" stroke="#070707" stroke-width="6" stroke-linecap="round" stroke-linejoin="round"/>
<path d="M1438.92 782.71C1441.2 782.71 1443.05 780.861 1443.05 778.58C1443.05 776.299 1441.2 774.45 1438.92 774.45C1436.64 774.45 1434.79 776.299 1434.79 778.58C1434.79 780.861 1436.64 782.71 1438.92 782.71Z" fill="#1C0E0C"/>
<path d="M1438.92 814.32C1441.2 814.32 1443.05 812.471 1443.05 810.19C1443.05 807.909 1441.2 806.06 1438.92 806.06C1436.64 806.06 1434.79 807.909 1434.79 810.19C1434.79 812.471 1436.64 814.32 1438.92 814.32Z" fill="#1C0E0C"/>
<path d="M1438.92 845.93C1441.2 845.93 1443.05 844.081 1443.05 841.8C1443.05 839.519 1441.2 837.67 1438.92 837.67C1436.64 837.67 1434.79 839.519 1434.79 841.8C1434.79 844.081 1436.64 845.93 1438.92 845.93Z" fill="#1C0E0C"/>
<path d="M1438.92 877.54C1441.2 877.54 1443.05 875.691 1443.05 873.41C1443.05 871.129 1441.2 869.28 1438.92 869.28C1436.64 869.28 1434.79 871.129 1434.79 873.41C1434.79 875.691 1436.64 877.54 1438.92 877.54Z" fill="#1C0E0C"/>
<path d="M1438.92 909.15C1441.2 909.15 1443.05 907.301 1443.05 905.02C1443.05 902.739 1441.2 900.89 1438.92 900.89C1436.64 900.89 1434.79 902.739 1434.79 905.02C1434.79 907.301 1436.64 909.15 1438.92 909.15Z" fill="#1C0E0C"/>
<path d="M1570.02 691.68C1592.72 691.68 1611.12 673.279 1611.12 650.58C1611.12 627.881 1592.72 609.48 1570.02 609.48C1547.32 609.48 1528.92 627.881 1528.92 650.58C1528.92 673.279 1547.32 691.68 1570.02 691.68Z" fill="#F4F1ED" stroke="#070707" stroke-width="6" stroke-linecap="round" stroke-linejoin="round"/>
<path d="M1559.43 632.2C1554.16 632.2 1550.61 636.28 1550.61 642.34C1550.61 648.79 1553.85 652.65 1559.27 652.65C1564.69 652.65 1568.01 648.65 1568.01 642.13C1568 636 1564.73 632.2 1559.43 632.2ZM1559.36 648.81C1555.74 648.81 1555.2 644.72 1555.2 642.28C1555.2 638.28 1556.68 636.04 1559.36 636.04C1562.77 636.04 1563.48 639.38 1563.48 642.19C1563.48 646.59 1562.09 648.81 1559.36 648.81Z" fill="#1C0E0C"/>
<path d="M1581.87 646.77C1576.69 646.77 1573.06 650.94 1573.06 656.9C1573.06 663.26 1576.38 667.21 1581.72 667.21C1587.06 667.21 1590.46 663.21 1590.46 656.69C1590.46 650.57 1587.17 646.77 1581.87 646.77ZM1581.81 663.37C1578.19 663.37 1577.65 659.29 1577.65 656.85C1577.65 652.85 1579.16 650.6 1581.81 650.6C1585.21 650.6 1585.92 653.95 1585.92 656.75C1585.92 661 1584.42 663.37 1581.81 663.37Z" fill="#1C0E0C"/>
<path d="M1584.33 632.66L1561.37 666.84H1556.79L1579.73 632.66H1584.33Z" fill="#1C0E0C"/>
<path d="M2198.27 800.89H1996.37C1986.64 800.89 1978.76 808.774 1978.76 818.5V1020.4C1978.76 1030.13 1986.64 1038.01 1996.37 1038.01H2198.27C2208 1038.01 2215.88 1030.13 2215.88 1020.4V818.5C2215.88 808.774 2208 800.89 2198.27 800.89Z" fill="#1C0E0C"/>
<path d="M2188.41 790.91H1986.51C1976.78 790.91 1968.9 798.794 1968.9 808.52V1010.42C1968.9 1020.15 1976.78 1028.03 1986.51 1028.03H2188.41C2198.14 1028.03 2206.02 1020.15 2206.02 1010.42V808.52C2206.02 798.794 2198.14 790.91 2188.41 790.91Z" fill="#040404" stroke="black" stroke-width="6" stroke-linecap="round" stroke-linejoin="round"/>
<path d="M2152.53 882.09H2044.41C2040.74 882.09 2037.77 885.063 2037.77 888.73V982.8C2037.77 986.467 2040.74 989.44 2044.41 989.44H2152.53C2156.2 989.44 2159.17 986.467 2159.17 982.8V888.73C2159.17 885.063 2156.2 882.09 2152.53 882.09Z" fill="white"/>
<path d="M2159.3 884.54V978.29C2159.3 979.753 2159.01 981.203 2158.45 982.555C2157.9 983.907 2157.07 985.135 2156.04 986.17C2155.01 987.205 2153.78 988.025 2152.42 988.585C2151.07 989.144 2149.62 989.431 2148.16 989.43H2121.16C2124.11 989.43 2126.95 988.256 2129.04 986.167C2131.13 984.078 2132.3 981.245 2132.3 978.29V884.54C2132.3 883.076 2132.01 881.626 2131.46 880.272C2130.9 878.919 2130.08 877.689 2129.04 876.653C2128.01 875.617 2126.78 874.794 2125.43 874.233C2124.07 873.671 2122.62 873.381 2121.16 873.38H2148.16C2149.62 873.381 2151.07 873.671 2152.43 874.233C2153.78 874.794 2155.01 875.617 2156.04 876.653C2157.08 877.689 2157.9 878.919 2158.46 880.272C2159.01 881.626 2159.3 883.076 2159.3 884.54Z" stroke="#070707" stroke-width="6" stroke-linecap="round" stroke-linejoin="round"/>
<path d="M2132.33 884.54V978.29C2132.33 981.245 2131.16 984.078 2129.07 986.167C2126.98 988.256 2124.14 989.43 2121.19 989.43H2036.19C2034.72 989.437 2033.27 989.153 2031.91 988.596C2030.55 988.04 2029.32 987.22 2028.28 986.185C2027.24 985.15 2026.42 983.92 2025.85 982.565C2025.29 981.21 2025 979.757 2025 978.29V884.54C2025 881.582 2026.17 878.745 2028.27 876.652C2030.36 874.56 2033.19 873.383 2036.15 873.38H2121.15C2122.62 873.376 2124.07 873.662 2125.43 874.221C2126.79 874.78 2128.02 875.602 2129.06 876.639C2130.1 877.676 2130.92 878.907 2131.48 880.263C2132.04 881.619 2132.33 883.072 2132.33 884.54Z" stroke="#070707" stroke-width="6" stroke-linecap="round" stroke-linejoin="round"/>
<path d="M2080.4 994.64V865" stroke="#070707" stroke-width="6" stroke-linecap="round" stroke-linejoin="round"/>
<path d="M2020.36 931.13H2163.35" stroke="#070707" stroke-width="6" stroke-linecap="round" stroke-linejoin="round"/>
<path d="M2097.78 836.15H2106.31C2110.92 836.15 2115.35 837.982 2118.61 841.243C2121.87 844.505 2123.7 848.928 2123.7 853.54V856C2123.7 860.612 2121.87 865.035 2118.61 868.297C2115.35 871.558 2110.92 873.39 2106.31 873.39H2080.4V853.53C2080.4 848.921 2082.23 844.502 2085.49 841.243C2088.75 837.985 2093.17 836.153 2097.78 836.15Z" stroke="#070707" stroke-width="6" stroke-linecap="round" stroke-linejoin="round"/>
<path d="M2080.2 873.37H2056.53C2052.89 873.37 2049.4 871.924 2046.82 869.349C2044.25 866.774 2042.8 863.281 2042.8 859.64V857.69C2042.8 854.049 2044.25 850.556 2046.82 847.982C2049.4 845.407 2052.89 843.96 2056.53 843.96H2066.47C2070.11 843.96 2073.6 845.407 2076.18 847.982C2078.75 850.556 2080.2 854.049 2080.2 857.69V873.37Z" stroke="#070707" stroke-width="6" stroke-linecap="round" stroke-linejoin="round"/>
<path d="M2102.05 897.15L2080.2 873.39L2066.83 886.76" stroke="#070707" stroke-width="6" stroke-linecap="round" stroke-linejoin="round"/>
<path d="M368.3 839.48C389.613 839.48 406.89 822.203 406.89 800.89C406.89 779.577 389.613 762.3 368.3 762.3C346.987 762.3 329.71 779.577 329.71 800.89C329.71 822.203 346.987 839.48 368.3 839.48Z" stroke="#070707" stroke-width="6" stroke-linecap="round" stroke-linejoin="round"/>
<path d="M464.41 647.34C471.164 647.34 476.64 641.864 476.64 635.11C476.64 628.356 471.164 622.88 464.41 622.88C457.655 622.88 452.18 628.356 452.18 635.11C452.18 641.864 457.655 647.34 464.41 647.34Z" stroke="#070707" stroke-width="6" stroke-linecap="round" stroke-linejoin="round"/>
<path d="M1788.22 1668.12H1792.92C1801.7 1668.12 1810.12 1671.61 1816.33 1677.81C1822.53 1684.02 1826.02 1692.44 1826.02 1701.22V1733.22H1755.13V1701.22C1755.13 1692.44 1758.62 1684.03 1764.82 1677.82C1771.03 1671.61 1779.44 1668.12 1788.22 1668.12Z" stroke="#070707" stroke-width="6" stroke-linecap="round" stroke-linejoin="round"/>
<path d="M1812.13 1668.12H1816.83C1825.61 1668.12 1834.03 1671.61 1840.24 1677.81C1846.44 1684.02 1849.93 1692.44 1849.93 1701.22V1733.22H1779V1701.22C1779 1696.87 1779.86 1692.56 1781.52 1688.55C1783.19 1684.53 1785.63 1680.88 1788.71 1677.8C1791.78 1674.73 1795.43 1672.29 1799.45 1670.63C1803.47 1668.97 1807.78 1668.12 1812.13 1668.12Z" stroke="#070707" stroke-width="6" stroke-linecap="round" stroke-linejoin="round"/>
<path d="M1956.46 2075.18H1861.51L1901.76 1733.16H1916.21L1956.46 2075.18Z" fill="#1C0E0C"/>
<path d="M1901.76 1733.16L1861.51 2075.18H1640.86L1681.12 1733.16H1901.76Z" stroke="#070707" stroke-width="6" stroke-linecap="round" stroke-linejoin="round"/>
<path d="M1873.6 1837.58H1841.28L1845.4 1790.51C1845.85 1786.14 1847.88 1782.08 1851.12 1779.1C1854.36 1776.12 1858.57 1774.43 1862.97 1774.35C1865.04 1774.31 1867.09 1774.72 1869 1775.53C1870.9 1776.35 1872.6 1777.57 1874 1779.1C1875.39 1780.62 1876.45 1782.43 1877.09 1784.4C1877.73 1786.37 1877.95 1788.45 1877.72 1790.51L1873.6 1837.58Z" fill="white"/>
<path d="M1870.76 1834.74H1838.44L1842.56 1787.67C1843.01 1783.29 1845.04 1779.23 1848.28 1776.25C1851.51 1773.27 1855.73 1771.58 1860.13 1771.5C1862.2 1771.46 1864.25 1771.87 1866.16 1772.69C1868.06 1773.51 1869.76 1774.72 1871.16 1776.25C1872.55 1777.78 1873.61 1779.59 1874.25 1781.56C1874.89 1783.53 1875.11 1785.61 1874.88 1787.67L1870.76 1834.74Z" stroke="#070707" stroke-width="6" stroke-linecap="round" stroke-linejoin="round"/>
<path d="M1861.3 1786.97C1862.75 1785.58 1862.89 1783.37 1861.62 1782.04C1860.34 1780.71 1858.13 1780.75 1856.68 1782.14C1855.22 1783.53 1855.08 1785.74 1856.36 1787.07C1857.63 1788.4 1859.84 1788.36 1861.3 1786.97Z" stroke="#070707" stroke-width="6" stroke-linecap="round" stroke-linejoin="round"/>
<path d="M1859.1 1784.16L1863.7 1730.73C1863.86 1728.95 1864.67 1727.28 1865.99 1726.07C1867.31 1724.86 1869.04 1724.19 1870.83 1724.19C1872.73 1724.19 1874.55 1724.94 1875.89 1726.29C1877.24 1727.63 1877.99 1729.45 1877.99 1731.35" stroke="#070707" stroke-width="6" stroke-linecap="round" stroke-linejoin="round"/>
<path d="M1857 1817.73C1857.82 1817.6 1858.59 1817.22 1859.19 1816.64C1859.71 1816.14 1860.03 1815.46 1860.09 1814.74C1860.14 1814.42 1860.12 1814.08 1860.02 1813.77C1859.93 1813.46 1859.76 1813.17 1859.53 1812.93C1858.95 1812.43 1858.27 1812.06 1857.53 1811.85L1855.87 1811.36C1854.87 1811.09 1853.89 1810.72 1852.96 1810.25C1852.2 1809.85 1851.58 1809.25 1851.15 1808.51C1850.69 1807.62 1850.52 1806.6 1850.66 1805.61C1850.75 1804.16 1851.39 1802.8 1852.46 1801.82C1853.69 1800.77 1855.24 1800.17 1856.86 1800.11H1858.56C1859.39 1800.17 1860.2 1800.37 1860.97 1800.7C1861.64 1801 1862.21 1801.46 1862.65 1802.04C1862.99 1802.47 1863.26 1802.94 1863.46 1803.45C1863.62 1803.87 1863.69 1804.33 1863.67 1804.78C1863.62 1805.23 1863.41 1805.64 1863.07 1805.95C1862.74 1806.25 1862.3 1806.42 1861.85 1806.43C1861.65 1806.44 1861.46 1806.41 1861.27 1806.35C1861.08 1806.28 1860.91 1806.18 1860.77 1806.05C1860.62 1805.92 1860.5 1805.76 1860.41 1805.58C1860.33 1805.4 1860.28 1805.21 1860.27 1805.01C1860.2 1804.49 1859.98 1804 1859.63 1803.61C1859.29 1803.21 1858.83 1802.92 1858.33 1802.78L1856.63 1802.72C1855.96 1802.89 1855.34 1803.2 1854.79 1803.61C1854.55 1803.82 1854.36 1804.07 1854.23 1804.36C1854.09 1804.65 1854.02 1804.95 1854.01 1805.27C1853.96 1805.55 1853.97 1805.85 1854.05 1806.13C1854.13 1806.4 1854.27 1806.66 1854.46 1806.88C1854.96 1807.32 1855.55 1807.66 1856.18 1807.88L1857.84 1808.37C1858.92 1808.68 1859.78 1808.95 1860.42 1809.2C1861.04 1809.45 1861.61 1809.82 1862.09 1810.29C1862.6 1810.78 1862.98 1811.39 1863.21 1812.06C1863.46 1812.78 1863.55 1813.55 1863.47 1814.31C1863.37 1815.33 1863.03 1816.31 1862.47 1817.17C1861.89 1818.08 1861.1 1818.83 1860.16 1819.35C1859.12 1819.93 1857.95 1820.28 1856.76 1820.35H1855.05C1854.12 1820.26 1853.21 1820.01 1852.37 1819.61C1851.67 1819.27 1851.05 1818.79 1850.53 1818.21C1850.09 1817.7 1849.75 1817.1 1849.53 1816.46C1849.34 1815.89 1849.26 1815.28 1849.31 1814.68C1849.35 1814.23 1849.57 1813.81 1849.91 1813.52C1850.26 1813.18 1850.73 1813 1851.21 1813C1851.57 1812.99 1851.92 1813.09 1852.21 1813.29C1852.47 1813.48 1852.65 1813.76 1852.71 1814.08C1852.84 1814.65 1853 1815.21 1853.2 1815.76C1853.35 1816.17 1853.6 1816.54 1853.92 1816.83C1854.31 1817.19 1854.79 1817.44 1855.3 1817.57L1857 1817.73Z" fill="#070707"/>
<path d="M1855.72 1822.37H1855.65C1855.56 1822.36 1855.47 1822.34 1855.38 1822.29C1855.3 1822.25 1855.23 1822.19 1855.17 1822.12C1855.11 1822.05 1855.06 1821.97 1855.04 1821.88C1855.01 1821.79 1855 1821.69 1855.01 1821.6L1857.01 1798.34C1857.03 1798.15 1857.12 1797.98 1857.26 1797.86C1857.41 1797.74 1857.59 1797.68 1857.78 1797.7C1857.97 1797.72 1858.14 1797.81 1858.26 1797.95C1858.38 1798.1 1858.44 1798.28 1858.43 1798.47L1856.43 1821.72C1856.41 1821.9 1856.33 1822.06 1856.2 1822.18C1856.07 1822.3 1855.9 1822.37 1855.72 1822.37Z" fill="#070707"/>
<path d="M1708.12 1780.39H1711.53C1717.9 1780.39 1724 1782.92 1728.5 1787.42C1733 1791.92 1735.53 1798.02 1735.53 1804.39V1827.57H1684.1V1804.4C1684.1 1801.25 1684.72 1798.12 1685.93 1795.21C1687.13 1792.29 1688.9 1789.65 1691.13 1787.42C1693.36 1785.19 1696.01 1783.42 1698.93 1782.21C1701.84 1781.01 1704.97 1780.39 1708.12 1780.39Z" stroke="#070707" stroke-width="6" stroke-linecap="round" stroke-linejoin="round"/>
<path d="M1725.47 1780.39H1728.88C1735.25 1780.39 1741.35 1782.92 1745.85 1787.42C1750.35 1791.92 1752.88 1798.02 1752.88 1804.39V1827.57H1701.44V1804.4C1701.44 1798.03 1703.97 1791.93 1708.47 1787.43C1712.97 1782.93 1719.07 1780.4 1725.44 1780.4L1725.47 1780.39Z" stroke="#070707" stroke-width="6" stroke-linecap="round" stroke-linejoin="round"/>
<path d="M1830.19 2075.75H1761.3L1790.51 1827.59H1800.99L1830.19 2075.75Z" fill="#F4F1ED" stroke="#070707" stroke-width="6" stroke-linecap="round" stroke-linejoin="round"/>
<path d="M1790.51 1827.59L1761.3 2075.75H1601.2L1630.41 1827.59H1790.51Z" fill="#F4F1ED" stroke="#070707" stroke-width="6" stroke-linecap="round" stroke-linejoin="round"/>
<path d="M691.82 1271.89H408.58C396.259 1271.89 386.27 1281.88 386.27 1294.2V1612.93C386.27 1625.25 396.259 1635.24 408.58 1635.24H691.82C704.142 1635.24 714.13 1625.25 714.13 1612.93V1294.2C714.13 1281.88 704.142 1271.89 691.82 1271.89Z" fill="#040404" stroke="black" stroke-width="6" stroke-linecap="round" stroke-linejoin="round"/>
<path d="M662 1306.26C658.421 1302.68 653.862 1300.25 648.9 1299.26C643.937 1298.27 638.793 1298.78 634.119 1300.72C629.444 1302.65 625.448 1305.93 622.636 1310.14C619.824 1314.34 618.322 1319.29 618.32 1324.35V1398.88H669.49V1324.35C669.494 1320.99 668.835 1317.66 667.55 1314.56C666.264 1311.45 664.378 1308.63 662 1306.26ZM643.91 1325.11C642.818 1325.11 641.751 1324.79 640.843 1324.18C639.936 1323.57 639.228 1322.71 638.81 1321.7C638.392 1320.69 638.283 1319.58 638.496 1318.51C638.709 1317.44 639.235 1316.46 640.007 1315.69C640.779 1314.91 641.762 1314.39 642.833 1314.18C643.904 1313.96 645.014 1314.07 646.022 1314.49C647.031 1314.91 647.893 1315.62 648.5 1316.52C649.106 1317.43 649.43 1318.5 649.43 1319.59C649.427 1321.05 648.849 1322.45 647.821 1323.48C646.793 1324.51 645.398 1325.1 643.94 1325.11H643.91Z" stroke="#070707" stroke-width="6" stroke-linecap="round" stroke-linejoin="round"/>
<path d="M658.56 1301.5C654.983 1297.92 650.424 1295.48 645.46 1294.49C640.495 1293.5 635.349 1294.01 630.672 1295.94C625.996 1297.88 621.999 1301.16 619.187 1305.37C616.376 1309.58 614.877 1314.53 614.88 1319.59V1394.12H666.06V1319.59C666.065 1316.23 665.404 1312.9 664.117 1309.8C662.83 1306.69 660.941 1303.87 658.56 1301.5ZM640.47 1320.35C639.376 1320.35 638.306 1320.03 637.395 1319.42C636.484 1318.82 635.774 1317.95 635.354 1316.94C634.934 1315.93 634.823 1314.82 635.035 1313.75C635.247 1312.67 635.773 1311.69 636.546 1310.91C637.319 1310.14 638.304 1309.61 639.377 1309.4C640.45 1309.18 641.563 1309.29 642.574 1309.71C643.585 1310.13 644.449 1310.84 645.057 1311.75C645.665 1312.66 645.99 1313.73 645.99 1314.82C645.99 1316.28 645.409 1317.69 644.374 1318.73C643.339 1319.76 641.935 1320.35 640.47 1320.35Z" fill="#F4F1ED" stroke="#070707" stroke-width="6" stroke-linecap="round" stroke-linejoin="round"/>
<path d="M640.47 1312.74V1268.29C640.47 1264.9 641.818 1261.64 644.216 1259.25C646.615 1256.85 649.868 1255.5 653.26 1255.5C654.94 1255.5 656.605 1255.83 658.158 1256.47C659.711 1257.11 661.122 1258.05 662.31 1259.24C663.499 1260.43 664.442 1261.84 665.085 1263.39C665.729 1264.95 666.06 1266.61 666.06 1268.29V1269.57" stroke="#070707" stroke-width="6" stroke-linecap="round" stroke-linejoin="round"/>
<path d="M650.87 1358.19C650.419 1357.12 649.736 1356.16 648.87 1355.39C648.057 1354.65 647.11 1354.06 646.08 1353.67C645.04 1353.28 643.64 1352.84 641.88 1352.35H641.76V1343.54H641.88C642.707 1343.77 643.457 1344.22 644.052 1344.84C644.646 1345.46 645.063 1346.23 645.26 1347.07C645.355 1347.71 645.683 1348.29 646.181 1348.71C646.679 1349.12 647.312 1349.34 647.96 1349.32C648.309 1349.33 648.656 1349.26 648.979 1349.13C649.302 1349 649.595 1348.8 649.84 1348.55C650.089 1348.31 650.287 1348.03 650.421 1347.71C650.555 1347.39 650.623 1347.05 650.62 1346.71C650.595 1345.98 650.417 1345.26 650.1 1344.6C649.717 1343.79 649.218 1343.04 648.62 1342.37C647.849 1341.45 646.877 1340.73 645.78 1340.25C644.535 1339.74 643.22 1339.42 641.88 1339.31H641.76V1336.62C641.76 1336.28 641.623 1335.94 641.379 1335.7C641.135 1335.46 640.805 1335.32 640.46 1335.32C640.115 1335.32 639.785 1335.46 639.541 1335.7C639.297 1335.94 639.16 1336.28 639.16 1336.62V1339.32C636.673 1339.39 634.295 1340.35 632.46 1342.03C631.183 1343.45 630.386 1345.24 630.181 1347.14C629.976 1349.04 630.375 1350.96 631.32 1352.62C632.091 1353.8 633.161 1354.75 634.42 1355.37C635.941 1356.1 637.528 1356.69 639.16 1357.12V1367C638.33 1366.79 637.558 1366.39 636.9 1365.84C636.359 1365.37 635.919 1364.8 635.61 1364.15C635.33 1363.53 635 1362.64 634.61 1361.48C634.464 1360.97 634.141 1360.53 633.7 1360.23C633.219 1359.92 632.653 1359.76 632.08 1359.78C631.708 1359.77 631.337 1359.83 630.992 1359.97C630.647 1360.12 630.336 1360.33 630.08 1360.6C629.831 1360.84 629.631 1361.12 629.494 1361.44C629.356 1361.76 629.284 1362.1 629.28 1362.44C629.292 1363.41 629.492 1364.36 629.87 1365.25C630.313 1366.28 630.936 1367.21 631.71 1368.02C632.601 1368.94 633.651 1369.69 634.81 1370.24C636.181 1370.86 637.644 1371.25 639.14 1371.4V1373.4C639.14 1373.74 639.277 1374.08 639.521 1374.32C639.765 1374.56 640.095 1374.7 640.44 1374.7C640.785 1374.7 641.115 1374.56 641.359 1374.32C641.603 1374.08 641.74 1373.74 641.74 1373.4V1371.32H641.86C643.709 1371.2 645.506 1370.66 647.11 1369.73C648.52 1368.9 649.678 1367.71 650.46 1366.27C651.213 1364.88 651.602 1363.32 651.59 1361.74C651.598 1360.52 651.352 1359.31 650.87 1358.19ZM636.3 1350C635.688 1349.27 635.359 1348.35 635.372 1347.4C635.384 1346.45 635.739 1345.54 636.37 1344.83C637.181 1344.17 638.122 1343.7 639.13 1343.43V1351.56C638.093 1351.23 637.132 1350.7 636.3 1350ZM645.17 1365.46C644.282 1366.38 643.116 1366.99 641.85 1367.19H641.73V1357.85H641.85C643.07 1358.19 644.21 1358.77 645.2 1359.56C645.587 1359.92 645.89 1360.37 646.087 1360.86C646.284 1361.36 646.371 1361.89 646.34 1362.42C646.361 1363.55 645.941 1364.64 645.17 1365.46Z" fill="#070707"/>
<path d="M355.8 1394.39H311.66C311.66 1394.39 269.26 1356.84 250.73 1334.69C248.2 1331.64 245.884 1328.42 243.8 1325.05C241.851 1321.88 240.779 1318.25 240.694 1314.53C240.609 1310.81 241.514 1307.13 243.317 1303.88C245.12 1300.62 247.755 1297.9 250.954 1296C254.152 1294.1 257.799 1293.08 261.52 1293.05H262C306.8 1293 355.83 1374.2 355.8 1394.39Z" fill="#1C0E0C"/>
<path d="M380.15 1394.39H349.09C349.09 1394.39 319.26 1367.97 306.22 1352.39C304.441 1350.25 302.814 1347.98 301.35 1345.61C299.972 1343.38 299.212 1340.82 299.15 1338.2C299.087 1335.58 299.723 1332.99 300.993 1330.7C302.263 1328.41 304.12 1326.49 306.375 1325.16C308.629 1323.82 311.199 1323.11 313.82 1323.09H314.15C345.67 1323.09 380.16 1380.19 380.15 1394.39Z" fill="#F4F1ED"/>
<path d="M287.82 1250.64C362.12 1249.86 387.96 1356.03 386.35 1394.39H355.8C355.8 1374.2 306.8 1293.04 262 1293.04C246.11 1293.04 236.74 1307.2 241.53 1320.04C241.53 1320 210.74 1251.45 287.82 1250.64Z" fill="#383836" stroke="black" stroke-width="6" stroke-linecap="round" stroke-linejoin="round"/>
<path d="M515 1379.33C520.24 1366.79 513.19 1352.33 500.14 1348.4C439.63 1330.15 377.76 1394.4 377.76 1394.4H362.62C362.62 1394.4 394.37 1300.81 487.96 1314.72C508.45 1317.76 535.35 1337.49 515 1379.33Z" fill="#383836" stroke="black" stroke-width="6" stroke-linecap="round" stroke-linejoin="round"/>
<path d="M515 1379.54C512.19 1386.12 508.75 1392.27 506.3 1394.39H471.9C471.9 1394.39 480.13 1391.6 488.09 1379.54C497.76 1364.89 493.28 1346.77 480.04 1345.54C486.867 1345.61 493.656 1346.58 500.23 1348.42C513.31 1352.36 520.36 1367 515 1379.54Z" fill="#1C0E0C"/>
<path d="M528.24 1391.23H303.42C276.154 1391.23 254.05 1413.33 254.05 1440.6V1704.18C254.05 1731.45 276.154 1753.55 303.42 1753.55H528.24C555.506 1753.55 577.61 1731.45 577.61 1704.18V1440.6C577.61 1413.33 555.506 1391.23 528.24 1391.23Z" fill="#1C0E0C"/>
<path d="M467.76 1391.23H252.34C225.074 1391.23 202.97 1413.33 202.97 1440.6V1704.18C202.97 1731.45 225.074 1753.55 252.34 1753.55H467.76C495.026 1753.55 517.13 1731.45 517.13 1704.18V1440.6C517.13 1413.33 495.026 1391.23 467.76 1391.23Z" fill="#F4F1ED" stroke="#070707" stroke-width="6" stroke-linecap="round" stroke-linejoin="round"/>
<path d="M941.3 1324.79H877.19C861.539 1324.78 846.297 1329.79 833.699 1339.08C821.101 1348.37 811.811 1361.45 807.19 1376.4L704.19 1709.61C697.822 1730.21 685.025 1748.22 667.674 1761.02C650.323 1773.82 629.33 1780.72 607.77 1780.72H251.24C237.02 1780.72 223.21 1785.48 212.016 1794.25C200.822 1803.02 192.891 1815.29 189.49 1829.1L176.49 1898.2C174.621 1905.78 174.502 1913.69 176.142 1921.33C177.781 1928.96 181.137 1936.13 185.955 1942.27C190.772 1948.42 196.926 1953.39 203.949 1956.81C210.971 1960.23 218.68 1962 226.49 1962H661.16" stroke="#070707" stroke-width="6" stroke-linecap="round" stroke-linejoin="round"/>
<path d="M608.09 1780.72H277.39C255.836 1780.71 234.849 1773.81 217.504 1761.01C200.159 1748.22 187.367 1730.2 181 1709.61L114.91 1443.13H786.61L704.61 1709.5C698.253 1730.13 685.449 1748.18 668.077 1761C650.704 1773.82 629.68 1780.73 608.09 1780.72Z" stroke="#070707" stroke-width="6" stroke-linecap="round" stroke-linejoin="round"/>
<path d="M388.28 1780.72L283.9 1443.13" stroke="#070707" stroke-width="6" stroke-linecap="round" stroke-linejoin="round"/>
<path d="M476.41 1780.72L580.79 1443.13" stroke="#070707" stroke-width="6" stroke-linecap="round" stroke-linejoin="round"/>
<path d="M737.79 1600.93H155.52" stroke="#070707" stroke-width="6" stroke-linecap="round" stroke-linejoin="round"/>
<path d="M612.28 2095.64C640.441 2095.64 663.27 2072.81 663.27 2044.65C663.27 2016.49 640.441 1993.66 612.28 1993.66C584.119 1993.66 561.29 2016.49 561.29 2044.65C561.29 2072.81 584.119 2095.64 612.28 2095.64Z" fill="#040404"/>
<path d="M266.09 2095.64C294.251 2095.64 317.08 2072.81 317.08 2044.65C317.08 2016.49 294.251 1993.66 266.09 1993.66C237.929 1993.66 215.1 2016.49 215.1 2044.65C215.1 2072.81 237.929 2095.64 266.09 2095.64Z" fill="#040404"/>
<path d="M601.69 2086.67C629.851 2086.67 652.68 2063.84 652.68 2035.68C652.68 2007.52 629.851 1984.69 601.69 1984.69C573.529 1984.69 550.7 2007.52 550.7 2035.68C550.7 2063.84 573.529 2086.67 601.69 2086.67Z" stroke="#070707" stroke-width="6" stroke-linecap="round" stroke-linejoin="round"/>
<path d="M255.49 2086.67C283.651 2086.67 306.48 2063.84 306.48 2035.68C306.48 2007.52 283.651 1984.69 255.49 1984.69C227.329 1984.69 204.5 2007.52 204.5 2035.68C204.5 2063.84 227.329 2086.67 255.49 2086.67Z" stroke="#070707" stroke-width="6" stroke-linecap="round" stroke-linejoin="round"/>
<path d="M653.41 1651.15H602.04C594.037 1651.15 587.55 1657.64 587.55 1665.64V1739.05C587.55 1747.05 594.037 1753.54 602.04 1753.54H653.41C661.413 1753.54 667.9 1747.05 667.9 1739.05V1665.64C667.9 1657.64 661.413 1651.15 653.41 1651.15Z" fill="#FFF8F6" stroke="black" stroke-width="6" stroke-linecap="round" stroke-linejoin="round"/>
<path d="M2309.99 1169.13H2145.57V1205.38H2309.99V1169.13Z" fill="#1C0E0C"/>
<path d="M2288.37 2041.17C2294 2055.86 2298.68 2077.71 2278.96 2077.71H2172.33C2172.33 2077.71 2172.02 2061.46 2196.92 2059.29C2239.07 2055.62 2252.33 2022.21 2252.92 2006.4C2254.13 1921.22 2220.92 1661.31 2215.39 1611.04C2251.33 1609.93 2287.1 1605.67 2322.3 1598.31C2304.23 1659.5 2343.13 1709.7 2346.16 1771.22C2349.16 1832.57 2300.27 1968.56 2286.11 2015.08C2284.94 2023.38 2285.84 2034.54 2288.37 2041.17Z" fill="white" stroke="#070707" stroke-width="6" stroke-linecap="round" stroke-linejoin="round"/>
<path d="M2288.37 2041.17C2288.37 2041.17 2304.68 2077.71 2280.97 2077.71H2170.7C2170.7 2077.71 2166.27 2063.89 2194.9 2059.29C2198.9 2058.66 2210.28 2056.47 2210.28 2056.47C2210.28 2056.47 2206.74 2066.69 2231.95 2065.58C2257.16 2064.47 2268.51 2043 2288.37 2041.17Z" fill="#FFF8F6" stroke="black" stroke-width="6" stroke-linecap="round" stroke-linejoin="round"/>
<path d="M2319.22 1611.33C2285.97 1620.64 2251.91 1626.71 2217.49 1629.45L2215.36 1611.04C2251.3 1609.93 2287.07 1605.67 2322.26 1598.31L2319.22 1611.33Z" fill="#1C0E0C"/>
<path d="M2001.7 1576C2037.17 1589.77 2074.06 1599.52 2111.7 1605.09L2079.1 1658.38C2079.1 1668.93 2125.52 1717.78 2138.29 1761.38C2153.71 1814.14 2139.1 1961.04 2143.97 1984.58C2147.02 1999.29 2131.73 2029.9 2116.78 2044.07C2107.78 2052.58 2096.36 2049.41 2096.36 2049.41C2096.36 2049.41 2120.53 2001.08 2109.07 1963.48C2066.83 1824.76 1984.07 1666.48 1984.07 1644.48C1984.07 1632.6 1990.16 1610.1 1999.22 1583.23L2001.7 1576Z" fill="white" stroke="#070707" stroke-width="6" stroke-linecap="round" stroke-linejoin="round"/>
<path d="M2142.3 1987.09C2148.54 1983.72 2169.89 2002.59 2168.8 2013.09L2117.17 2076.94H2064.25C2064.25 2076.94 2058.81 2054.94 2096.32 2049.52C2133.83 2044.1 2118.13 2000.17 2142.3 1987.09Z" fill="#FFF8F6" stroke="black" stroke-width="6" stroke-linecap="round" stroke-linejoin="round"/>
<path d="M2001.7 1576C2037.17 1589.77 2074.06 1599.52 2111.7 1605.09L2099.59 1625C2065.86 1617.86 2031.75 1603.07 1999.2 1583.36L2001.7 1576Z" fill="#1C0E0C"/>
<path d="M2363 1587.79C2363 1587.79 2181.25 1649.47 1994.59 1573.19C1994.59 1573.19 2130.94 1269.65 2142.29 1246.93C2153.64 1224.21 2152.86 1187.69 2152.86 1187.69C2152.86 1187.69 2147.16 1129.29 2130.12 1109.81C2113.08 1090.33 2103.35 1068.42 2112.27 1040.81C2121.19 1013.2 2131.72 958.81 2131.72 958.81L2169.08 946.63L2300.82 944.19C2300.82 944.19 2317.12 963.19 2313.61 998.9C2310.61 1029.9 2271.71 1117.22 2305.43 1187.66C2320.84 1212.81 2375.11 1258.14 2381.67 1337.42C2390.16 1439.72 2363 1587.79 2363 1587.79Z" fill="black" stroke="black" stroke-width="6" stroke-linecap="round" stroke-linejoin="round"/>
<path d="M2158.77 989C2158.06 961.22 2136.35 944.72 2114.4 972.18C2098.86 991.6 2058.78 1060.12 2035.86 1103.97C2013.3 1069.76 1963.25 1010.48 1935.41 984.39C1936.35 972.87 1930.79 941.01 1927.41 938.63C1923.68 936 1906.09 910.27 1906.09 910.27C1906.09 910.27 1899.61 913.75 1905.61 924.4C1912.61 936.76 1911.06 940.68 1911.06 940.68C1911.06 940.68 1903.2 941.97 1902.25 947.16C1901.3 952.35 1895.17 948.7 1892.36 956.58C1890.72 961.19 1886.97 962.98 1888.02 967.58C1889.02 971.89 1910.39 989.86 1921.4 992.97C1936.63 1038.62 1983.98 1143.13 2028.51 1170.79C2038.12 1175.21 2054.19 1170.26 2074.78 1145.79C2160.62 1043.86 2159.38 1012.46 2158.77 989Z" fill="white" stroke="#070707" stroke-width="6" stroke-linecap="round" stroke-linejoin="round"/>
<path d="M2259.08 841.87C2258.27 862.97 2255.17 895.64 2305.37 952.25C2332.29 982.6 2250.37 991.37 2206.5 968.43C2176.33 952.67 2169.09 946.66 2169.09 946.66C2169.09 946.66 2197.45 944.13 2208.49 915.66C2216.11 896.01 2208.54 873.66 2204.72 841.85L2259.08 841.87Z" fill="white" stroke="#070707" stroke-width="6" stroke-linecap="round" stroke-linejoin="round"/>
<path d="M2246.16 846C2246.45 848.7 2240.89 897.64 2211.31 906.61C2214.17 891.01 2207.12 864.61 2205.54 845.97L2246.16 846Z" fill="#1C0E0C"/>
<path d="M2287.57 848.67C2294.33 881.16 2390.38 872.27 2396.81 952.03" stroke="#070707" stroke-width="4" stroke-linecap="round" stroke-linejoin="round"/>
<path d="M2294.55 1010.4C2259 994.12 2209.42 945.66 2258.39 871.32C2252.78 869.23 2246.87 865.32 2245.04 858.19C2241.28 843.38 2190.53 825.96 2188.21 794.9C2187.43 784.49 2195.29 759.37 2248.61 762.26C2301.69 765.15 2306.51 828.96 2289.61 848.18C2289.58 848.205 2289.55 848.236 2289.53 848.27C2297 884.5 2398.75 884.7 2384.18 974C2380.12 998.94 2342 1032.12 2294.55 1010.4Z" fill="#1C0E0C"/>
<path d="M2242.78 857.94C2242.65 860.63 2237.6 878.17 2201.88 886.55C2195.4 888.08 2178.31 888.55 2177.88 884.55C2177.4 879.85 2174.52 861.29 2174.25 851.36C2174.17 848.3 2164.1 841.44 2165.94 839.22C2171.59 832.4 2181.58 824.57 2181.8 821.76C2183.47 800.64 2191.39 788.87 2199.16 789.29C2203.6 789.53 2197.96 828.71 2242.79 841.52C2242.79 841.52 2255.53 834.91 2257.43 841.89C2259.33 848.87 2242.78 857.94 2242.78 857.94Z" fill="white" stroke="#070707" stroke-width="6" stroke-linecap="round" stroke-linejoin="round"/>
<path d="M1194.42 2034.09C1194.42 2034.09 1177.86 2068.52 1189.23 2080.97H1335.29C1335.29 2080.97 1334.48 2056.86 1299.29 2053.06C1267.72 2049.65 1248.49 2034.06 1248.49 2034.06L1194.42 2034.09Z" fill="#1C0E0C"/>
<path d="M1336.95 2080.97H1186.98C1185.88 2080.97 1184.99 2081.86 1184.99 2082.96V2087.64C1184.99 2088.74 1185.88 2089.63 1186.98 2089.63H1336.95C1338.05 2089.63 1338.94 2088.74 1338.94 2087.64V2082.96C1338.94 2081.86 1338.05 2080.97 1336.95 2080.97Z" fill="#1C0E0C"/>
<path d="M1258 2051.91L1262.91 2040.84C1263.19 2040.19 1263.61 2039.61 1264.12 2039.12C1264.64 2038.64 1265.25 2038.27 1265.92 2038.03C1266.59 2037.79 1267.29 2037.69 1268 2037.73C1268.71 2037.77 1269.4 2037.96 1270.03 2038.28C1271.16 2038.85 1272.05 2039.81 1272.52 2040.99C1273 2042.17 1273.03 2043.47 1272.61 2044.67L1271.93 2046.54" stroke="#070707" stroke-width="6" stroke-linecap="round" stroke-linejoin="round"/>
<path d="M1272.43 2057.06L1277.18 2045.71C1277.43 2045.14 1277.79 2044.63 1278.25 2044.21C1278.7 2043.79 1279.23 2043.46 1279.82 2043.26C1280.4 2043.05 1281.02 2042.96 1281.64 2043C1282.25 2043.04 1282.86 2043.2 1283.41 2043.48C1284.4 2043.98 1285.17 2044.82 1285.59 2045.85C1286 2046.87 1286.03 2048.02 1285.66 2049.06L1285.25 2050.63" stroke="#070707" stroke-width="6" stroke-linecap="round" stroke-linejoin="round"/>
<path d="M1287.06 2061.68L1290.18 2050.21C1290.36 2049.62 1290.65 2049.07 1291.05 2048.59C1291.44 2048.12 1291.93 2047.73 1292.48 2047.45C1293.03 2047.17 1293.63 2047 1294.24 2046.96C1294.86 2046.92 1295.48 2047.01 1296.06 2047.21C1298.22 2047.97 1299.64 2050.05 1299.31 2053.09" stroke="#070707" stroke-width="6" stroke-linecap="round" stroke-linejoin="round"/>
<path d="M934.33 2034.09C934.33 2034.09 917.77 2068.52 929.14 2080.97H1067.05C1067.05 2080.97 1066.23 2056.86 1031.05 2053.06C999.47 2049.65 980.25 2034.06 980.25 2034.06L934.33 2034.09Z" fill="#1C0E0C"/>
<path d="M1068.7 2080.97H926.89C925.791 2080.97 924.9 2081.86 924.9 2082.96V2087.64C924.9 2088.74 925.791 2089.63 926.89 2089.63H1068.7C1069.8 2089.63 1070.69 2088.74 1070.69 2087.64V2082.96C1070.69 2081.86 1069.8 2080.97 1068.7 2080.97Z" fill="#1C0E0C"/>
<path d="M989.71 2051.91L994.62 2040.84C994.906 2040.19 995.321 2039.61 995.84 2039.13C996.358 2038.64 996.97 2038.27 997.636 2038.03C998.303 2037.79 999.011 2037.69 999.719 2037.73C1000.43 2037.78 1001.12 2037.96 1001.75 2038.28C1002.88 2038.85 1003.77 2039.82 1004.24 2040.99C1004.71 2042.17 1004.74 2043.47 1004.32 2044.67L1003.64 2046.54" stroke="#070707" stroke-width="6" stroke-linecap="round" stroke-linejoin="round"/>
<path d="M1004.19 2057.06L1008.94 2045.71C1009.19 2045.14 1009.55 2044.63 1010.01 2044.21C1010.46 2043.79 1010.99 2043.46 1011.58 2043.26C1012.16 2043.05 1012.78 2042.96 1013.4 2043C1014.01 2043.04 1014.62 2043.2 1015.17 2043.48C1016.16 2043.98 1016.93 2044.82 1017.34 2045.85C1017.76 2046.87 1017.78 2048.02 1017.42 2049.06L1017.01 2050.63" stroke="#070707" stroke-width="6" stroke-linecap="round" stroke-linejoin="round"/>
<path d="M1018.81 2061.68L1021.94 2050.21C1022.12 2049.62 1022.41 2049.07 1022.81 2048.59C1023.2 2048.12 1023.69 2047.73 1024.24 2047.45C1024.79 2047.17 1025.39 2047 1026 2046.96C1026.62 2046.92 1027.24 2047.01 1027.82 2047.21C1029.98 2047.97 1031.4 2050.05 1031.07 2053.09" stroke="#070707" stroke-width="6" stroke-linecap="round" stroke-linejoin="round"/>
<path d="M1235.15 1290.27C1246.15 1331.27 1249.93 1469.08 1253.49 1672.16C1256.08 1819.51 1268.88 2029.28 1268.88 2029.28C1268.88 2029.28 1235.22 2043.9 1175.72 2032.54C1175.72 2032.54 1118.72 1844.74 1139.03 1707.93C1142.27 1686.01 1111.46 1556.18 1111.46 1556.18C1111.46 1556.18 988.8 1999 988.8 2035.24C988.8 2035.24 940.99 2044.43 912.59 2035.24C912.59 2035.24 869.69 1833.51 937.75 1716.02C974.4 1652.75 966 1421.35 967 1402.7C970.37 1336.92 1002.56 1287.38 1002.56 1287.38L1235.15 1290.27Z" fill="#040404" stroke="black" stroke-width="6" stroke-linecap="round" stroke-linejoin="round"/>
<path d="M1111.46 1557.81C1107.4 1539.95 1086.25 1410.81 1080.57 1405.9C1074.89 1400.99 1065.15 1394.54 1058.66 1388.04" stroke="#070707" stroke-width="6" stroke-linecap="round" stroke-linejoin="round"/>
<path d="M1239 1310.29C1153.88 1355.65 1024.65 1333.45 993.84 1303.12C996.47 1297.73 999.374 1292.48 1002.54 1287.38L1235.17 1290.27C1236.83 1296.86 1238.11 1303.55 1239 1310.29Z" fill="#1C0E0C"/>
<path d="M1007.66 1212.5C1006.99 1216.89 1006.04 1221.23 1004.81 1225.5C971.24 1224.96 941.56 1220.05 927.31 1206.37C885.85 1166.57 917.01 1069.26 918.96 1063.37C933.47 1073.02 954.34 1083.8 984.08 1093.78C997.49 1147.84 1009.75 1198.11 1007.66 1212.5Z" fill="white" stroke="#070707" stroke-width="6" stroke-linecap="round" stroke-linejoin="round"/>
<path d="M919 1063.35C933.51 1073 954.38 1083.78 984.12 1093.76C987.21 1106.23 990.24 1118.48 993.05 1130.15C953.05 1112.28 932.77 1090.97 915.27 1076.4L919 1063.35Z" fill="#1C0E0C"/>
<path d="M1535 884.72C1533 882.11 1529.62 881.58 1528.94 880.5C1528.26 879.42 1528.49 876.7 1526.49 874.95C1524.49 873.2 1521.56 873.47 1520.31 872.45C1519.06 871.43 1519.91 868.45 1517.53 865.9C1515.15 863.35 1511.75 863.67 1510.99 862.9C1510.23 862.13 1523.5 839.02 1518.45 836.03C1513.4 833.04 1487.55 865.81 1482.45 873.49C1471.95 889.32 1471.85 909.19 1470.45 916.31C1470.34 916.386 1470.24 916.473 1470.15 916.57C1466.1 921.44 1370.31 1016.4 1353.27 1048.06L1338.1 1025.06L1251 1086.75C1251 1086.75 1314.31 1178.75 1370.3 1159.28C1423.3 1140.85 1483.57 961.77 1494.69 937.12C1512.97 933.51 1528.26 913.2 1533.24 903.94C1539.71 892 1537 887.32 1535 884.72Z" fill="white" stroke="#070707" stroke-width="6" stroke-linecap="round" stroke-linejoin="round"/>
<path d="M1342.33 1031.53C1327.75 1065.16 1302.81 1093.26 1271.14 1111.72C1263.94 1103.79 1257.23 1095.44 1251.02 1086.72L1338.09 1025.08L1342.33 1031.53Z" fill="#1C0E0C"/>
<path d="M984.08 1093.76C997.49 1147.84 1009.75 1198.11 1007.66 1212.5C1003.28 1242.69 979.02 1279.88 990.39 1288.5C1022.26 1312.81 1125.13 1338.06 1243.44 1296.5C1243.44 1296.5 1228.29 1267.94 1244.67 1153.87C1247.09 1137.01 1250.28 1113.54 1253.52 1087.73H1253.59C1306.74 1069.05 1347.93 1013.55 1347.93 1013.55C1347.93 1013.55 1322.09 944.93 1293.57 921.81C1275.57 907.21 1182.32 881.05 1174.7 876.61L1064.05 875.14C1056.67 875.76 977.63 900.81 945.14 924.74C915.57 946.52 887.85 1033.44 887.85 1033.44C887.85 1033.44 903.12 1066.56 984.08 1093.76Z" fill="#F4F1ED" stroke="#070707" stroke-width="6" stroke-linecap="round" stroke-linejoin="round"/>
<path d="M1060.74 875.82C1069.57 871.71 1100.4 840 1095.54 801.71L1164.11 809.51C1164.11 809.51 1170.96 857.09 1182.32 881.11C1158.25 887.19 1133.5 890.125 1108.68 889.84C1067.77 889.32 1060.74 875.82 1060.74 875.82Z" fill="white" stroke="#070707" stroke-width="6" stroke-linecap="round" stroke-linejoin="round"/>
<path d="M1173.69 857.22C1166.8 856.42 1152.11 853.41 1144.32 846.22C1131.63 834.52 1113.82 808.66 1113.65 803.93L1164.11 809.51C1164.11 809.51 1168.35 833.37 1173.69 857.22Z" fill="#1C0E0C"/>
<path d="M1130.21 804.29C1130.21 804.29 1141 823.52 1152.06 826.29C1163.12 829.06 1188.47 826.9 1196.18 822.29C1200.94 819.45 1199.5 795.86 1198.59 787.29C1198.41 785.64 1211.43 780.13 1210.59 775.1C1209.7 769.76 1194.94 757.1 1193.64 750.01C1189.82 729.2 1184.64 709.55 1182.94 708.82C1180.18 707.61 1136.77 710.37 1131.64 722.22C1126.51 734.07 1132.97 770.76 1132.97 770.76C1132.97 770.76 1118.97 762.57 1114.77 773.51C1108.55 789.54 1130.21 804.29 1130.21 804.29Z" fill="white" stroke="#070707" stroke-width="6" stroke-linecap="round" stroke-linejoin="round"/>
<path d="M1211.36 695.57C1226.44 707.75 1203.77 758.09 1157.8 722.35" stroke="black" stroke-width="6" stroke-linecap="round" stroke-linejoin="round"/>
<path d="M1047 734.44C1055.86 718.63 1073.28 731.85 1073.28 731.85" stroke="black" stroke-width="6" stroke-linecap="round" stroke-linejoin="round"/>
<path d="M1197.39 784.53C1197.39 784.53 1180.39 798.36 1170.8 799.53C1161.21 800.7 1153.25 771.88 1150.29 759.14C1143.65 729.56 1144.43 717.74 1171.92 727.83C1208.18 741.14 1215.44 696.29 1201.45 688.74C1192.54 683.94 1188.22 685.43 1175.66 691.74C1161.66 698.82 1132.01 675.38 1096.75 685.74C1063.64 695.46 1068.69 728.88 1068.69 728.88C1068.69 728.88 1055.63 726.51 1053.26 745.6C1051.39 760.7 1072.34 787.45 1088.49 817.37C1093.02 825.76 1114.98 820.75 1120.39 812.29C1120.39 812.29 1127.63 799.94 1118.57 784.95C1111.14 772.67 1123.93 762.76 1136.67 773.47C1134.8 782.06 1130.75 805.26 1138.42 817.23C1149.89 835.13 1209.01 837.8 1210.48 827.85C1211.95 817.9 1197.39 784.53 1197.39 784.53Z" fill="#1C0E0C"/>
<path d="M2243.79 855.87C2251.88 855.87 2258.44 849.311 2258.44 841.22C2258.44 833.129 2251.88 826.57 2243.79 826.57C2235.7 826.57 2229.14 833.129 2229.14 841.22C2229.14 849.311 2235.7 855.87 2243.79 855.87Z" fill="white"/>
<path d="M2238.22 850.16C2238.22 850.16 2236.53 844.39 2238.09 839.16C2238.62 837.265 2239.67 835.553 2241.11 834.212C2242.55 832.871 2244.33 831.954 2246.26 831.56" stroke="#070707" stroke-width="4" stroke-linecap="round" stroke-linejoin="round"/>
<path d="M2246.26 842.97L2238.09 839.18" stroke="#070707" stroke-width="4" stroke-linecap="round" stroke-linejoin="round"/>
<path d="M2254.67 864.45C2258.43 864.45 2261.48 861.401 2261.48 857.64C2261.48 853.879 2258.43 850.83 2254.67 850.83C2250.91 850.83 2247.86 853.879 2247.86 857.64C2247.86 861.401 2250.91 864.45 2254.67 864.45Z" fill="#F7F3EF" stroke="#070707" stroke-width="4" stroke-linecap="round" stroke-linejoin="round"/>
<path d="M2189.69 827.94C2191.53 827.94 2193.02 825.755 2193.02 823.06C2193.02 820.365 2191.53 818.18 2189.69 818.18C2187.85 818.18 2186.36 820.365 2186.36 823.06C2186.36 825.755 2187.85 827.94 2189.69 827.94Z" fill="#1C0E0C"/>
<path d="M2177.94 857.64C2177.94 857.64 2185.48 858.31 2189.69 853.21" stroke="#070707" stroke-width="4" stroke-linecap="round" stroke-linejoin="round"/>
<path d="M1144.74 803C1138.11 804.839 1131.02 803.969 1125.03 800.581C1119.04 797.194 1114.64 791.565 1112.81 784.935C1110.97 778.305 1111.84 771.215 1115.22 765.226C1118.61 759.237 1124.24 754.839 1130.87 753" fill="white"/>
<path d="M1144.74 803C1138.11 804.839 1131.02 803.969 1125.03 800.581C1119.04 797.194 1114.64 791.565 1112.81 784.935C1110.97 778.305 1111.84 771.215 1115.22 765.226C1118.61 759.237 1124.24 754.839 1130.87 753" stroke="#070707" stroke-width="6" stroke-linecap="round" stroke-linejoin="round"/>
<path d="M1122 775C1122 775 1132.35 768.27 1140.11 780.17Z" fill="white"/>
<path d="M1122 775C1122 775 1132.35 768.27 1140.11 780.17" stroke="#070707" stroke-width="6" stroke-linecap="round" stroke-linejoin="round"/>
<path d="M1133.63 774.13L1128.3 784.53" stroke="#070707" stroke-width="6" stroke-linecap="round" stroke-linejoin="round"/>
<path d="M1181.91 763.282C1184.15 762.846 1185.42 759.763 1184.77 756.397C1184.11 753.031 1181.77 750.656 1179.53 751.092C1177.3 751.528 1176.02 754.611 1176.68 757.977C1177.34 761.343 1179.68 763.718 1181.91 763.282Z" fill="#1C0E0C"/>
<path d="M1176.05 737.406L1166.54 742.545C1164.78 743.495 1164.13 745.691 1165.08 747.45C1166.03 749.209 1168.22 749.865 1169.98 748.914L1179.49 743.776C1181.25 742.826 1181.91 740.63 1180.96 738.871C1180.01 737.112 1177.81 736.456 1176.05 737.406Z" fill="#1C0E0C"/>
<path d="M956.89 990.89L984.08 1093.76" stroke="#070707" stroke-width="6" stroke-linecap="round" stroke-linejoin="round"/>
<path d="M1291.61 930.59C1291.61 930.59 1233.52 934.13 1224.66 997.09" stroke="#070707" stroke-width="6" stroke-linecap="round" stroke-linejoin="round"/>
</g>
<defs>
<clipPath id="clip0_803_1895">
<rect width="3086.88" height="2459.87" fill="white"/>
</clipPath>
</defs>
</svg>
